<svg version="1.1" id="_x32_" xmlns="http://www.w3.org/2000/svg" x="0" y="0" viewBox="0 0 512 512" style="width:256px;height:256px" xml:space="preserve" opacity="1"><style>.st0{fill:#fff}</style><path class="st0" d="M510.168 392.022l-45.594-57.326V93.611c0-11.662-9.458-21.12-21.12-21.12H68.546c-11.662 0-21.115 9.458-21.115 21.12v241.085L1.837 392.022A8.446 8.446 0 000 397.287v25.373c0 9.311 7.542 16.849 16.849 16.849h478.302c9.31 0 16.849-7.538 16.849-16.849v-25.373c0-1.92-.64-3.77-1.832-5.265zM77.226 102.291h357.548v202.606H77.226V102.291zM304.121 419.47h-96.242v-25.478h96.242v25.478z" fill="#fff"/><path class="st0" d="M204.404 167.431a.538.538 0 00-.31.096l-57.525 39.266a.572.572 0 00-.242.467v10.556c0 .189.09.363.242.458l57.525 39.266a.49.49 0 00.31.104.539.539 0 00.255-.069.56.56 0 00.298-.493v-16.824a.57.57 0 00-.242-.458l-39.94-27.267 39.94-27.258a.572.572 0 00.242-.467v-16.815a.548.548 0 00-.298-.492.456.456 0 00-.255-.07zm101.666.096a.559.559 0 00-.312-.096.469.469 0 00-.259.07.552.552 0 00-.294.492v16.824c0 .182.091.355.242.458l39.94 27.258-39.94 27.267a.574.574 0 00-.242.466v16.815a.565.565 0 00.553.562.5.5 0 00.312-.104l57.52-39.266a.515.515 0 00.25-.458v-10.556a.55.55 0 00-.25-.467l-57.52-39.265zm-24.695-9.303h-16.08a.544.544 0 00-.522.372L228.26 264.473a.551.551 0 00.074.492.576.576 0 00.454.242h16.08c.238 0 .45-.156.523-.38l36.508-105.859a.576.576 0 00-.069-.51.568.568 0 00-.455-.234z" fill="#fff"/></svg>