<svg xmlns="http://www.w3.org/2000/svg" viewBox="0 0 512 512" style="width:256px;height:256px"><path d="M410.126 58.44c-6.568-10.527-16.551-23.442-50.389-25.61-37.702-2.439-41.132-30.833-90.228-32.75-61.967-2.439-70.092 51.77-92.94 69.144-43.116 32.75-50.778 88.334-55.884 154.018-6.017 77.115 5.157 125.939 18.315 156.354-11.432 19.328-18.756 32.288-34.609 42.682-15.788 10.337 40.376 14.312 61.665-.566.14.155.302.316.427.47 12.121 13.334 13.458 31.524 14.81 41.236.581 4.187.683 7.802 2.064 10.564.698 12.841 16.515 20.996 34.962 22.178 18.851 1.205 18.851 16.985 26.932 15.773 8.081-1.219 6.729-12.136 2.696-14.568 5.392-2.41 20.202 10.924 28.283 4.863 8.088-6.068 0-12.144 0-12.144l10.778 1.219c10.777 1.22 9.425-8.492 2.689-14.546-6.73-6.068-18.859-7.273-40.405-3.643-13.716 2.314-20.857-2.234-24.266-5.862 1.08-2.998 1.756-6.656 2.072-11.13 1.337-19.388-2.704-19.388 5.37-19.388 3.21 0 15.118-.778 30.076-3.82l.83 15.148c-.647.852-1.029 1.822-1.029 2.954 0 2.123.536 4.084 1.514 5.892l.008.036.014-.007c4.143 7.654 16.221 12.416 29.9 13.231 16.92 1.006 16.92 14.112 24.17 13.113 7.251-1.014 6.046-10.087 2.417-12.107 4.834-2.012 18.139 9.066 25.389 4.026 7.251-5.032 0-10.072 0-10.072l9.668 1.006c9.675.999 8.463-7.052 2.417-12.092-6.039-5.047-16.919-6.054-36.262-3.026-10.874 1.704-17.162-1.058-20.578-3.806l1.432-.375v-26.866c11.314-5.458 21.871-12.636 29.724-22.061 28.284-33.948 55.862-89.751 49.824-167.388-4.239-54.554-30.767-112.356-39.061-124.919-2.218-3.364-4.034-6.538-5.429-9.513-6.774-14.23-4.378-23.869 6.744-26.866 12.9-3.504 36.467-18.807 64.296-8.72 1.234.435 2.344-.857 1.594-2.062zM294.354 440.6l-7.53 1.984c-4.981.014-10.836.345-15.574 1.469l-.712-12.915c7.669-1.881 15.816-4.35 23.817-7.596V440.6zm40.141-329.428c6.737 10.211 33.22 66.206 37.415 120.136 2.645 34.028-1.227 66.316-11.512 95.974-8.257 23.809-20.379 45.401-36.004 64.156-24.207 29.084-81.619 35.204-91.926 35.204-3.88 0-8.287 0-11.924 3.762-3.658 3.798-3.496 8.382-3.357 12.43.095 2.821.242 6.656-.176 12.592a44.619 44.619 0 01-.485 4.349 143.571 143.571 0 01-12.665 3.424c-4.275.279-8.595.867-12.18 1.954-.11-1-.228-2.042-.382-3.13-.118-.845-.236-1.748-.36-2.696-1.403-10.865-3.739-28.952-16.448-43.351 8.242-16.706-.771-44.21-8.83-68.813-.778-2.373-1.638-5.018-2.468-7.618 5.128 6.274 10.196 15.971 13.766 22.774 7.7 14.708 13.254 25.33 23.906 25.33 1.726 0 3.424-.323 5.047-.97l1.572-.632 1.278-1.116c100.704-87.276 51.292-200.733 35.05-238.002-1.617-3.732-3.291-7.582-3.652-8.853-2.248-8.118-.734-16.206 4.261-22.774 5.62-7.398 14.686-11.813 24.236-11.813 2.601 0 5.209.33 7.743.984 8.426 2.16 19.248 3.262 32.133 3.262 7.178 0 14.958-.323 23.193-.984a110.271 110.271 0 002.769 4.421z" fill="#fff"/></svg>