<svg version="1.1" id="_x32_" xmlns="http://www.w3.org/2000/svg" x="0" y="0" width="512" height="512" style="width:256px;height:256px" xml:space="preserve" opacity="1"><style>.st0{fill:#fff}</style><path class="st0" d="M256 233.109c-28.5 0-51.594 23.297-51.594 52.047 0 28.766 23.094 52.047 51.594 52.047s51.594-23.281 51.594-52.047c0-28.75-23.094-52.047-51.594-52.047z" fill="#fff"/><path class="st0" d="M497.375 140.297c-8.984-9.094-21.641-14.813-35.453-14.813h-54.203c-4.359.016-8.438-2.594-10.313-6.813l-16.234-36.344c-8.031-18.016-25.891-29.734-45.703-29.734H176.531c-19.813 0-37.672 11.719-45.719 29.719v.016l-16.219 36.344c-1.875 4.219-5.953 6.828-10.313 6.813H50.078c-13.813 0-26.484 5.719-35.484 14.813C5.594 149.359 0 162.031 0 175.828v233.25c0 13.797 5.594 26.469 14.594 35.531 9 9.094 21.672 14.813 35.484 14.797h411.844c13.813.016 26.469-5.703 35.453-14.797 9.031-9.063 14.625-21.734 14.625-35.531v-233.25c0-13.797-5.594-26.484-14.625-35.531zm-24.094 268.781c0 3.313-1.281 6.125-3.375 8.281-2.156 2.109-4.844 3.328-7.984 3.344H50.078c-3.156-.016-5.859-1.234-7.984-3.344-2.094-2.156-3.375-4.969-3.375-8.281v-233.25c0-3.313 1.281-6.125 3.375-8.281 2.125-2.125 4.828-3.328 7.984-3.344h54.203c19.781 0 37.656-11.734 45.688-29.766l16.188-36.328c1.906-4.203 5.969-6.813 10.375-6.813H335.47c4.406 0 8.469 2.609 10.359 6.797l16.219 36.359c8.016 18.016 25.891 29.75 45.672 29.75h54.203c3.141.016 5.828 1.219 7.984 3.344 2.094 2.156 3.375 4.984 3.375 8.281v233.251z" fill="#fff"/><path class="st0" d="M256 170.938c-31.313-.016-59.75 12.844-80.203 33.5-20.484 20.656-33.172 49.266-33.156 80.719-.016 31.453 12.672 60.094 33.156 80.719 20.453 20.672 48.891 33.516 80.203 33.516 31.297 0 59.75-12.844 80.203-33.516 20.484-20.625 33.172-49.266 33.156-80.719.016-31.453-12.672-60.063-33.156-80.719-20.453-20.657-48.906-33.516-80.203-33.5zm59.031 173.953c-15.172 15.297-35.953 24.688-59.031 24.688-23.094 0-43.859-9.391-59.047-24.688-15.141-15.297-24.5-36.328-24.516-59.734.016-23.391 9.375-44.422 24.516-59.734 15.188-15.297 35.953-24.672 59.047-24.688 23.078.016 43.859 9.391 59.031 24.688 15.156 15.313 24.516 36.344 24.531 59.734-.015 23.406-9.374 44.437-24.531 59.734zm77.157-147.235h34.406v34.406h-34.406z" fill="#fff"/></svg>