<svg version="1.1" id="_x32_" xmlns="http://www.w3.org/2000/svg" x="0" y="0" viewBox="0 0 512 512" style="width:256px;height:256px" xml:space="preserve" opacity="1"><style>.st0{fill:#fff}</style><path class="st0" d="M503.226 149.258c-8.387-23.098-22.152-45.049-39.507-63.626-17.371-18.562-38.33-33.794-61.525-42.956-14.495-5.72-28.692-8.573-42.144-8.58-5.586 0-11.039.506-16.327 1.505v28.423c4.931-1.474 10.353-2.279 16.327-2.279 9.519 0 20.32 2.026 31.999 6.629 12.44 4.916 24.565 12.223 35.664 21.303 16.655 13.609 31.016 31.188 41.011 49.965 5.006 9.378 8.939 19.053 11.591 28.647.789 2.838 1.46 5.676 2.01 8.507L221.372 318.185a152.82 152.82 0 00-4.44-14.525c-8.164-22.495-21.63-43.984-38.598-62.151-16.983-18.16-37.482-33.027-59.962-41.891a123.071 123.071 0 00-17.072-5.378l68.646-37.205v-31.441L36.543 197.875l-.268.186c-11.367 6.845-20.633 16.886-26.83 29.139C3.218 239.453 0 253.851 0 269.665v154.513l216.858 85.517 5.675-3.069L512 349.788V196.445c0-15.828-3.188-31.783-8.774-47.187zM206.444 475.863L27.649 405.355v-135.69c0-12.097 2.443-22.063 6.45-29.958 3.993-7.828 9.46-13.69 16.312-17.899l20.424-11.068a71.23 71.23 0 016.986-.388c10.131 0 21.467 2.168 33.579 6.942 12.915 5.088 25.4 12.641 36.811 21.966 17.116 13.996 31.805 31.969 42.084 51.269 10.309 19.284 16.164 39.842 16.148 58.836v126.498zM484.366 333.32L225.453 473.613V343.308h-.164a163.36 163.36 0 00-.402-5.4l110.924-60.109v35.217a18.967 18.967 0 0028.781 16.215l1.907-1.147a33.609 33.609 0 0016.222-28.766v-46.941l101.644-55.068V333.32z" fill="#fff"/><path class="st0" fill="#fff" d="M284.997 94.697v-31.44l-56.311 30.502v31.448z"/><path class="st0" d="M199.309 182.561c7.642 0 13.824-6.19 13.824-13.824V85.983c-.015-5.721 3.128-10.957 8.148-13.675l77.972-42.248v-.015l.402-.09c.164 0 .298.03.447.127h.015c.253.134.417.432.417.738v80.773c0 7.627 6.182 13.809 13.825 13.809 7.627 0 13.809-6.182 13.809-13.809V30.819a28.531 28.531 0 00-13.914-24.498 28.478 28.478 0 00-14.599-4.015 28.54 28.54 0 00-13.586 3.449h.014l-77.971 42.241a43.209 43.209 0 00-22.614 37.987v82.754c.001 7.634 6.184 13.824 13.811 13.824z" fill="#fff"/></svg>