<svg version="1.1" id="_x32_" xmlns="http://www.w3.org/2000/svg" x="0" y="0" viewBox="0 0 512 512" style="width:256px;height:256px" xml:space="preserve" opacity="1"><style>.st0{fill:#fff}</style><path class="st0" d="M256.004 0C114.8.008.025 114.801 0 255.996.025 397.183 114.8 511.975 256.004 512c141.187-.025 255.98-114.817 255.996-256.004C511.984 114.801 397.191.008 256.004 0zm164.731 420.72c-42.256 42.241-100.456 68.354-164.731 68.362-64.284-.008-122.491-26.121-164.732-68.362-42.24-42.241-68.345-100.456-68.354-164.724.008-64.276 26.114-122.475 68.354-164.731C133.513 49.04 191.72 22.927 256.004 22.918c64.276.008 122.475 26.122 164.731 68.346 42.224 42.256 68.338 100.447 68.346 164.731-.008 64.269-26.121 122.484-68.346 164.725z" fill="#fff"/><path class="st0" d="M72.03 173.859h-1.445c-11.141 25.118-17.37 52.885-17.37 82.137 0 79.817 46.109 148.821 113.138 181.918L72.039 173.859h-.009zm299.136 8.533c-17.484-24.452-14.891-74.438 17.26-79.914-35.538-30.672-81.8-49.272-132.421-49.272-71.894 0-135.006 37.432-171.017 93.857h74.23v26.795h-29.919l69.269 193.887 48.59-129.884-22.878-64.004h-34.607v-26.795h124.225v26.795H281.54l69.855 195.573 35.401-94.572c6.277-25.492 2.608-66.891-15.63-92.466zm73.347-1.115c-.08.77-.16 1.549-.273 2.304-4.905 32.92-35.394 105.127-35.394 105.127l-44.143 117.996-9.849 26.346c62.004-34.686 103.939-100.946 103.939-177.054a201.956 201.956 0 00-14.28-74.719z" fill="#fff"/><path class="st0" d="M211.861 404.962l-16.665 44.537c19.202 6.036 39.616 9.287 60.808 9.287 23.16 0 45.388-3.925 66.122-11.086l-61.675-172.654-48.59 129.916z" fill="#fff"/></svg>