<svg xmlns="http://www.w3.org/2000/svg" viewBox="0 0 500 500"><path d="M309.46 435.36l.71 35.87-44.63 1.11c.16-4.27 23-13.4 23-13.4l-1.4-23z" fill="#90caf9"/><path d="M302.32 456.66a1.82 1.82 0 011.31 2 1.74 1.74 0 01-2 1.32 1.92 1.92 0 01-1.38-2.18 1.82 1.82 0 012.25-1.14m7.67 14.57l-.21-3.61-42.71 2.38s-2 .92-1.71 2.31z" fill="#fff" opacity=".6"/><path d="M287.84 458.73c0 .22 1.11.29 2.2 1s1.68 1.58 1.88 1.49-.16-1.34-1.49-2.14-2.64-.55-2.59-.35zm-4.63 2.05c0 .21.91.56 1.67 1.46s1 1.88 1.22 1.86.33-1.25-.65-2.35-2.24-1.18-2.24-.97zm-2.52 5.67c.2 0 .48-1.05-.11-2.23s-1.62-1.63-1.71-1.45.56.81 1 1.78.61 1.88.82 1.9zm7.42-12.99c.09.2 1.08-.13 2.32-.08s2.2.42 2.31.23-.83-.94-2.29-1-2.45.68-2.34.85zm.89-5.32a4.2 4.2 0 002.23-.07 10 10 0 003.59-1.49 2.53 2.53 0 00.66-.54.94.94 0 00.07-1.16 1.2 1.2 0 00-1-.48 2.81 2.81 0 00-.83.14 7.74 7.74 0 00-1.38.51 8 8 0 00-2 1.41c-1 1-1.34 1.8-1.27 1.84s.59-.62 1.63-1.44a8.53 8.53 0 012-1.17 8.24 8.24 0 011.27-.43c.47-.14.88-.15 1 .06s0 .11 0 .25a2.39 2.39 0 01-.49.4 13.24 13.24 0 01-1.16.7 11.85 11.85 0 01-2.14.88 14.7 14.7 0 00-2.18.59z" fill="#263238"/><path d="M289.33 448.44a3.5 3.5 0 00.53-2.17 7 7 0 00-1-3.78 1.83 1.83 0 00-1.45-1.09 1.05 1.05 0 00-.92.64 3.26 3.26 0 00-.21.83 5 5 0 000 1.5 5.1 5.1 0 001 2.29c.9 1.13 1.82 1.37 1.83 1.3s-.7-.52-1.39-1.61a5.28 5.28 0 01-.76-2.08 4.72 4.72 0 010-1.3c.06-.47.23-.86.4-.81s.61.33.8.71a7 7 0 01.59 1.2 8 8 0 01.49 2.21c.18 1.31-.03 2.13.09 2.16z" fill="#263238"/><path d="M345.84 434.65l.71 35.87-44.62 1.12c.15-4.27 23-13.41 23-13.41l-1.4-23z" fill="#90caf9"/><path d="M338.7 456a1.85 1.85 0 011.3 2 1.75 1.75 0 01-2 1.32 1.91 1.91 0 01-1.38-2.17 1.8 1.8 0 012.25-1.14m7.68 14.51l-.21-3.61-42.71 2.42s-2 .91-1.7 2.31z" fill="#fff" opacity=".6"/><path d="M324.22 458c0 .22 1.11.29 2.2 1s1.68 1.57 1.88 1.48-.16-1.34-1.49-2.13-2.64-.53-2.59-.35zm-4.63 2.08c0 .21.91.56 1.67 1.46s1 1.87 1.22 1.86.33-1.25-.64-2.36-2.25-1.17-2.25-.96zm-2.52 5.66c.2.05.48-1.05-.11-2.23s-1.62-1.63-1.71-1.45.56.81 1 1.79.61 1.88.82 1.89zm7.42-12.99c.09.2 1.08-.12 2.32-.07s2.2.42 2.31.23-.83-1-2.29-1-2.46.68-2.34.84zm.93-5.32a4.12 4.12 0 002.23-.06 10.2 10.2 0 002.32-.78 11.56 11.56 0 001.27-.71 2.82 2.82 0 00.66-.55.94.94 0 00.07-1.16 1.21 1.21 0 00-1-.47 3.21 3.21 0 00-.83.13 7.75 7.75 0 00-1.38.52 8 8 0 00-2 1.4c-1 1-1.34 1.81-1.27 1.85s.59-.63 1.63-1.45a8.9 8.9 0 012-1.17 9.46 9.46 0 011.27-.43c.47-.13.88-.15 1 .06s0 .11 0 .25a2.39 2.39 0 01-.49.4 11.18 11.18 0 01-1.16.7 12.74 12.74 0 01-2.14.89 15.7 15.7 0 00-2.18.58z" fill="#263238"/><path d="M325.71 447.74a3.53 3.53 0 00.53-2.17 7.13 7.13 0 00-1-3.79 1.85 1.85 0 00-1.45-1.09 1 1 0 00-.92.65 3.1 3.1 0 00-.21.82 5.4 5.4 0 000 1.51 5.11 5.11 0 001 2.28c.9 1.14 1.82 1.37 1.84 1.3s-.7-.51-1.4-1.61a5.22 5.22 0 01-.76-2.08 4.65 4.65 0 010-1.29c.06-.48.23-.87.41-.82s.6.34.8.71a8.23 8.23 0 01.58 1.2 8.14 8.14 0 01.49 2.22c.18 1.31-.03 2.13.09 2.16z" fill="#263238"/><path d="M266 259.07c-.43 0 2 45 3.88 56.09 2.89 17.44 12.51 136.76 12.51 136.76h29.24l.6-166 5.31 63.9 2 102.44 28.58-.76 3-108.67c-.9-8.11 1.53-82.7 1.53-82.7zm13.23-167.93c-3.45-1.6-5.61-5.13-6.88-8.71s-1.85-7.43-3.26-10.92c-1-2.63.1-6.82-2.26-8.39-2.95-1.95-2.92-7.15-1.78-9.74 1.24-2.82 4.61-4.92 4.84-5.81.6-2.35-1.44-4.89-.68-7.19 1.78-5.41 6.19-4.7 6.19-4.7 2-2.43 4.72-5.65 9.13-6.79 4.77-1.23 11.82-2.15 16.07.35s7.38 4.18 8.75 8.92" fill="#263238"/><path d="M318.55 102.8l-10 17.18-13.82 13.8-8.11-11.14V102s-12.49-1.72-12.86-14.18c-.18-6 .46-18.44 1.18-29.67a23.23 23.23 0 0122.78-21.76h1.2c13 .54 19.78 11.86 18.88 24.82l.82 41.61" fill="#ce947a"/><path d="M278.52 67.37a1.8 1.8 0 001.75 1.77 1.71 1.71 0 001.81-1.64 1.8 1.8 0 00-1.75-1.77 1.71 1.71 0 00-1.81 1.64zm-1.07-3.83c.23.23 1.56-.79 3.47-.82s3.34.91 3.54.67-.13-.52-.75-1a4.86 4.86 0 00-2.84-.83 4.69 4.69 0 00-2.75 1c-.58.44-.78.88-.67.98zm19.06 3.4a1.78 1.78 0 001.74 1.77 1.71 1.71 0 001.81-1.64 1.79 1.79 0 00-1.75-1.77 1.7 1.7 0 00-1.8 1.64zm.02-4.26c.2.25 1.63-.62 3.54-.44s3.21 1.26 3.44 1-.07-.54-.64-1a4.83 4.83 0 00-2.73-1.13 4.7 4.7 0 00-2.85.64c-.62.41-.86.81-.76.93zm-6.76 15.87a12.8 12.8 0 00-3.12-.51c-.49 0-.95-.13-1-.46a2.58 2.58 0 01.3-1.46c.44-1.19.9-2.44 1.39-3.74 1.91-5.34 3.29-9.72 3.08-9.8s-1.95 4.19-3.87 9.53l-1.32 3.76a2.9 2.9 0 00-.23 1.93 1.24 1.24 0 00.82.7 3.28 3.28 0 00.83.1 12.42 12.42 0 003.12-.05zm5.66 1.23c-.31 0-.28 2.07-2 3.57s-4 1.32-4 1.61c0 .13.5.39 1.43.4a5.16 5.16 0 003.33-1.22 4.52 4.52 0 001.57-3c.06-.86-.19-1.38-.33-1.36zm1.22-23.41c.16.53 2.08.41 4.31.83s4 1.16 4.32.71c.15-.21-.13-.72-.83-1.28a7.32 7.32 0 00-3.15-1.34 7.2 7.2 0 00-3.42.17c-.88.28-1.29.66-1.23.91zm-18.39 2.27c.34.43 1.66 0 3.24-.09s2.94.24 3.24-.22c.13-.22-.09-.66-.68-1.06a4.69 4.69 0 00-5.22.25c-.56.48-.73.91-.58 1.12zm30.16-21.37a9.43 9.43 0 01-11.13 9.31c-2.11-.38-4.42-1.45-6.24-.32s-2 4.07-3.7 5.55c-2.43 2.11-6.3.13-9.39 1-2.38.71-3.87 3-5.45 4.9s-4 3.74-6.34 3a28.24 28.24 0 01.94-6.36 9.45 9.45 0 013.62-5.19 33.93 33.93 0 003-1.77c2-1.6 2.44-4.38 3.66-6.61a10.35 10.35 0 017.88-5.22c2.72-.28 5.51.53 8.16-.13 1.95-.5 3.66-1.77 5.64-2.14 3.86-.74 7.44 2 10.24 4.79" fill="#263238"/><path d="M296.08 42.76c1.73-.5 5.27-1.62 6.19-3.12 2-3.26 5.57-5.48 9.2-5.28a8.71 8.71 0 017.85 6.89 12.56 12.56 0 0110.78 6.94 14.55 14.55 0 01-.39 13.53 7.13 7.13 0 00-1.41 3.33c0 1.54 1.12 2.75 1.92 4 2.18 3.46 2 8.22.33 12s-2.88 5.09-5.28 5.85c-4.71 1.47 0 10.94-7.86 10.94l-1.58-28a2.48 2.48 0 01-.73.27c-4.64 1.05-5.25-8-4.21-10.59a27 27 0 01-4.65-4.89c-1.28-1.89-2.41-7-2.14-9.37-1.67.06-8.78-2.26-8.02-2.5z" fill="#263238"/><path d="M315.18 70c.21-.1 8.52-2.68 8.39 5.84s-8.66 6.64-8.67 6.4.28-12.24.28-12.24z" fill="#ce947a"/><path d="M317.55 79s.15.11.4.23a1.46 1.46 0 001.11 0c.91-.32 1.69-1.74 1.75-3.27a5 5 0 00-.38-2.13 1.75 1.75 0 00-1.1-1.16.77.77 0 00-.89.39c-.11.24-.06.41-.11.42s-.18-.14-.11-.49a1 1 0 01.35-.53 1.12 1.12 0 01.82-.21 2.08 2.08 0 011.53 1.35 5 5 0 01.48 2.38c-.08 1.72-1 3.31-2.22 3.65a1.59 1.59 0 01-1.35-.24c-.26-.15-.31-.34-.28-.39z" fill="#a56349"/><path d="M329.32 83.58a5.28 5.28 0 001 8 3.5 3.5 0 01-2.59.89c-.33 1.07 1.18 1.81 1.49 2.89a1.91 1.91 0 01-.6 1.83 4.8 4.8 0 01-1.75 1 19.46 19.46 0 01-5.89 1.13 4 4 0 01-3.24-1 4.39 4.39 0 01-.72-2.77l-.21-7.27a3.4 3.4 0 01.38-2.07 3.44 3.44 0 012.11-1.12l10.33-2.64" fill="#263238"/><path d="M355.52 249.71c-1.33-7.8-9.32-45.46-9.32-45.46l4.94-90c-2.28-1.53-32.61-12.53-32.61-12.53s-4.67 13.86-19.51 16.9-12.48-8.07-12.48-8.07-29 15.49-30.69 16.63-8.91 30.24-8.91 30.24l-5.46 18.83 22.93 5.33s.57 44.89 0 48.12-1.72 29.3-1.72 29.3l90 1.14s4.16-2.63 2.83-10.43z" fill="#90caf9"/><path d="M351.14 114.28s5.55 5.44 7.41 10.82 7.61 40.66 7.61 40.66-31.56 4.46-31.56 3.9 2.78-20.24 3.71-26.36 12.83-29.02 12.83-29.02z" fill="#90caf9"/><path d="M283.4 157.65l-2.09 4.86H280l-2.08-4.86h1.49l1.32 3.17 1.35-3.17zm-.03 2.43a2.71 2.71 0 112.7 2.53 2.54 2.54 0 01-2.7-2.53zm4 0a1.32 1.32 0 10-1.31 1.39 1.3 1.3 0 001.32-1.39zm2.12-2.43h1.37v3.77h2.32v1.09h-3.69zm4.14 2.7v-2.7H295v2.65c0 .84.35 1.17.93 1.17s.91-.33.91-1.17v-2.65h1.36v2.7a2.29 2.29 0 01-4.57 0zm10.12-2.7v4.86h-1.13l-2.15-2.59v2.59h-1.35v-4.86h1.13l2.15 2.59v-2.59zm2 1.09h-1.49v-1.09h4.35v1.09h-1.48v3.77h-1.38zm7.25 2.71v1.06h-3.9v-4.86h3.81v1.06h-2.45v.82h2.16v1h-2.16v.89zm4.69 0v1.06h-3.9v-4.86h3.81v1.06h-2.45v.82h2.16v1h-2.16v.89zm2.88-.23h-.75v1.29h-1.37v-4.86h2.22c1.33 0 2.16.69 2.16 1.8a1.62 1.62 0 01-.95 1.53l1.05 1.53h-1.48zm0-2.49h-.77v1.43h.77c.57 0 .85-.27.85-.71s-.26-.72-.83-.72z" fill="#fff"/><path d="M264.49 196.56a1.53 1.53 0 01-.08-.49c0-.39-.08-.87-.14-1.44-.09-1.24-.19-3-.26-5.28-.15-4.47-.2-10.63-.15-17.45s.17-13 .3-17.44c.07-2.17.14-4 .18-5.28 0-.58.06-1.05.08-1.44a1.82 1.82 0 01.07-.5 1.77 1.77 0 010 .5v6.73c0 4.53-.09 10.66-.15 17.44s-.05 13 0 17.43c0 2.23.06 4 .1 5.28v1.44a1.91 1.91 0 01.05.5zm72.96-58.69a4.46 4.46 0 010 1.17c0 .87 0 1.93-.05 3.19 0 2.82-.06 6.48-.1 10.54s-.11 7.84-.25 10.54c-.07 1.35-.14 2.44-.22 3.19a6 6 0 01-.17 1.16 4.46 4.46 0 010-1.17v-3.19c0-2.82.06-6.48.1-10.54s.12-7.84.25-10.54c.07-1.35.15-2.44.22-3.19a6 6 0 01.22-1.16zM350.19 115a23.26 23.26 0 00-10.91 8 5.87 5.87 0 011-1.75 16.51 16.51 0 013.52-3.45 16.88 16.88 0 014.36-2.3 5.81 5.81 0 012.03-.5zm-87.37 22.26c-.13.08-1.45-2.2-3.4-4.77s-3.76-4.49-3.65-4.6a25.95 25.95 0 017 9.37zm55.23 56.43a2.78 2.78 0 01-.32.46c-.26.33-.58.75-1 1.25-.85 1.09-2.13 2.63-3.75 4.49a180.43 180.43 0 01-13.45 13.86 182.82 182.82 0 01-14.85 12.34c-2 1.47-3.62 2.63-4.77 3.39l-1.33.88a2.25 2.25 0 01-.48.28 2.68 2.68 0 01.42-.36l1.27-1c1.12-.82 2.71-2 4.67-3.53 3.9-3 9.19-7.31 14.72-12.42s10.22-10.05 13.53-13.72c1.65-1.83 3-3.33 3.87-4.38l1-1.19c.32-.23.42-.36.47-.35z" fill="#263238"/><path d="M356.07 309L368 272.47c1.78-5.46 3.73-11.18 8-15 2.49-2.24 6.28-3.7 9.18-2a7.07 7.07 0 013.12 5.78 20.11 20.11 0 01-1.11 6.72c-4.8 16.63-10.64 32.93-16.71 49.14l.62-1.12" fill="#90caf9"/><path d="M372 300.64c0 .16-1.89-.25-4-1.16s-3.72-1.93-3.63-2.08 1.77.62 3.87 1.5 3.83 1.57 3.76 1.74zm4-8.82c-.07.16-2-.63-4.45-1.59s-4.38-1.75-4.33-1.92 2.12.36 4.56 1.34 4.22 2.01 4.22 2.17zm3.66-7.29c-.1.15-2-1.07-4.55-2.16s-4.72-1.65-4.68-1.84 2.33.13 4.93 1.26 4.4 2.61 4.3 2.74zm2.34-9.19c-.12.14-1.76-1.21-4.06-2.38s-4.33-1.74-4.29-1.92 2.2.13 4.58 1.36 3.88 2.83 3.77 2.94zm-29.73 2.42h3.56v7.05h-3.56z" fill="#263238"/><path d="M351.85 298.57v-14.71h4.34v12.27s4.57.13 5.14 2.14c1.25 4.42.7 14.36.7 14.36z" fill="#455a64"/><path d="M389.4 337.66c-1.23-7.39-3.12-14.7-3.48-22.18-.24-5.13.25-10.3-.39-15.4-.77-6.14-3.14-11.95-5.49-17.67-1.52-3.71-3.18-7.6-6.35-10.07a11.57 11.57 0 00-6.64-2.31c-4.36-1.79-16.32-2.3-20.1 5.72-2 4.26-2.24 9.11-3.39 13.69-1.54 6.16-.43 8.19-2.45 14.21-4.29 12.87-10.8 28.84-8.9 42.28.37 2.61 4.72 6.91 6.2 9.09 2.13 3.15 6 4.56 9.76 5.36a51.59 51.59 0 0031.58-3.38c3.54-1.59 7.07-3.75 8.86-7.19 1.9-3.66 1.47-8.07.79-12.15zm-11.34-41.5c-2 1.68-4.92.86-7.51.73-3.11-.16-6.15.85-9.22 1.38s-6.5.51-9-1.39a9.2 9.2 0 01-3.2-6.15 24.39 24.39 0 01.39-7.07 19.49 19.49 0 011.38-5.28 7.29 7.29 0 013.74-3.83c2-1 9.22-1.66 12-2.08a17.86 17.86 0 016.28 5.25 42.5 42.5 0 015.35 10 13.8 13.8 0 011.25 4.32 4.91 4.91 0 01-1.46 4.12z" fill="#fafafa"/><path d="M389.4 337.66c-1.23-7.39-3.12-14.7-3.48-22.18-.24-5.13.25-10.3-.39-15.4-.77-6.14-3.14-11.95-5.49-17.67-1.52-3.71-3.18-7.6-6.35-10.07a11.57 11.57 0 00-6.64-2.31c-4.36-1.79-16.32-2.3-20.1 5.72-2 4.26-2.24 9.11-3.39 13.69-1.54 6.16-.43 8.19-2.45 14.21-4.29 12.87-10.8 28.84-8.9 42.28.37 2.61 4.72 6.91 6.2 9.09 2.13 3.15 6 4.56 9.76 5.36a51.59 51.59 0 0031.58-3.38c3.54-1.59 7.07-3.75 8.86-7.19 1.9-3.66 1.47-8.07.79-12.15zm-11.34-41.5c-2 1.68-4.92.86-7.51.73-3.11-.16-6.15.85-9.22 1.38s-6.5.51-9-1.39a9.2 9.2 0 01-3.2-6.15 24.39 24.39 0 01.39-7.07 19.49 19.49 0 011.38-5.28 7.29 7.29 0 013.74-3.83c2-1 9.22-1.66 12-2.08a17.86 17.86 0 016.28 5.25 42.5 42.5 0 015.35 10 13.8 13.8 0 011.25 4.32 4.91 4.91 0 01-1.46 4.12z" fill="none"/><path d="M378.06 296.16a4.7 4.7 0 001.09-1.75 5.83 5.83 0 00.27-2.44 11.75 11.75 0 00-.88-3.22 63.83 63.83 0 00-3.89-8.15 19.72 19.72 0 00-8.09-7.91h.14l-5.85.77c-1 .14-2 .3-3.06.49a14.12 14.12 0 00-3 .82 7 7 0 00-3.55 3.58 17 17 0 00-1.27 4.47c-.25 1.53-.5 3-.6 4.52a15.6 15.6 0 00.24 4.34 9.52 9.52 0 001.69 3.74 7.14 7.14 0 003.12 2.29 10.67 10.67 0 003.67.61 31.32 31.32 0 006.71-1 22.54 22.54 0 015.64-.63c1.67.1 3.08.36 4.24.36a5.84 5.84 0 002.6-.47c.55-.27.79-.49.81-.47a3 3 0 01-.76.57 5.8 5.8 0 01-2.65.57c-1.18 0-2.61-.2-4.25-.27a22.76 22.76 0 00-5.55.7 31.19 31.19 0 01-6.8 1 10.73 10.73 0 01-3.82-.62 7.44 7.44 0 01-3.33-2.41 12 12 0 01-2.07-8.41c.1-1.52.35-3 .6-4.58a17.81 17.81 0 011.31-4.6 7.48 7.48 0 013.84-3.85 14.48 14.48 0 013.15-.85c1-.19 2.06-.35 3.08-.49l5.84-.75h.15a19.89 19.89 0 018.22 8.14 59.18 59.18 0 013.82 8.25 11.75 11.75 0 01.84 3.31 5.83 5.83 0 01-.35 2.51 4.21 4.21 0 01-.83 1.35 2.06 2.06 0 01-.47.48z" fill="#263238"/><path d="M389.4 337.66s.2.85.41 2.5a25.93 25.93 0 01.24 3.07 16.16 16.16 0 01-.43 4.18 11.08 11.08 0 01-2.41 4.67 17.64 17.64 0 01-4.93 3.85 49.37 49.37 0 01-14.4 4.91 51.59 51.59 0 01-18.43 0 29.45 29.45 0 01-4.93-1.25 14.36 14.36 0 01-4.61-2.56 10.56 10.56 0 01-1.8-2c-.51-.72-1.09-1.41-1.67-2.11a44.11 44.11 0 01-3.38-4.4 6.93 6.93 0 01-1.1-2.67c-.09-.95-.23-1.9-.26-2.86a43.61 43.61 0 01.1-5.82 72 72 0 012.08-11.79c1-3.94 2.25-7.89 3.59-11.86.68-2 1.37-4 2.06-6s1.43-4 2-6.08a36 36 0 00.88-6.38 37.83 37.83 0 011.09-6.34c.95-4.1 1.28-8.34 2.88-12.21a10.63 10.63 0 01.68-1.4 8.17 8.17 0 01.85-1.31 10.52 10.52 0 012.2-2.17 14.82 14.82 0 015.53-2.41 22 22 0 015.87-.48 18.69 18.69 0 015.66 1.09h.15v.17l-.23-.24a11.58 11.58 0 017.58 3.06 20 20 0 014.36 6.56A131.06 131.06 0 01384.2 293a44.12 44.12 0 011.45 6.53 48 48 0 01.39 6.23c0 4-.14 7.68.11 11a87 87 0 001.13 8.84c.44 2.56.86 4.75 1.19 6.53s.57 3.14.73 4.07c.07.45.12.8.16 1.05s0 .36 0 .36 0-.12-.08-.35-.12-.6-.2-1.05c-.19-.94-.45-2.3-.8-4.06s-.8-3.95-1.27-6.51a88.7 88.7 0 01-1.19-8.86c-.27-3.34-.12-7-.16-11a49.17 49.17 0 00-.43-6.18 43.67 43.67 0 00-1.45-6.47 134.49 134.49 0 00-5.22-13.56 19.5 19.5 0 00-4.28-6.4 11.11 11.11 0 00-7.27-2.92h-.23V270l.15.22a18.25 18.25 0 00-5.5-1 21.81 21.81 0 00-5.74.47 14.19 14.19 0 00-5.34 2.34 10 10 0 00-2.1 2.06 7.8 7.8 0 00-.8 1.25 10.68 10.68 0 00-.66 1.36c-1.55 3.76-1.89 8-2.84 12.12a36.7 36.7 0 00-1.08 6.27 36.76 36.76 0 01-.89 6.46c-.56 2.11-1.31 4.11-2 6.13s-1.37 4-2.06 6c-1.34 4-2.58 7.9-3.58 11.83a71.39 71.39 0 00-2.09 11.7 44.32 44.32 0 00-.11 5.75c0 .95.18 1.89.26 2.82a6.19 6.19 0 001 2.48 43.25 43.25 0 003.33 4.36c.58.71 1.16 1.4 1.69 2.14a9.8 9.8 0 001.72 2 14 14 0 004.46 2.48 30.45 30.45 0 004.86 1.25 51.29 51.29 0 0018.28.08 49.31 49.31 0 0014.33-4.81 17.7 17.7 0 004.89-3.75 11 11 0 002.39-4.56 20.19 20.19 0 00.29-7.19c-.1-.81-.18-1.43-.23-1.87s-.01-.73-.01-.73z" fill="#263238"/><path d="M389.4 337.66c-1.23-7.39-3.12-14.7-3.48-22.18-.24-5.13.25-10.3-.39-15.4-.77-6.14-3.14-11.95-5.49-17.67-1.52-3.71-3.18-7.6-6.35-10.07a11.57 11.57 0 00-6.64-2.31c-4.36-1.79-16.32-2.3-20.1 5.72-2 4.26-2.24 9.11-3.39 13.69-1.54 6.16-.43 8.19-2.45 14.21-4.29 12.87-10.8 28.84-8.9 42.28.37 2.61 4.72 6.91 6.2 9.09 2.13 3.15 6 4.56 9.76 5.36a51.59 51.59 0 0031.58-3.38c3.54-1.59 7.07-3.75 8.86-7.19 1.9-3.66 1.47-8.07.79-12.15zm-11.34-41.5c-2 1.68-4.92.86-7.51.73-3.11-.16-6.15.85-9.22 1.38s-6.5.51-9-1.39a9.2 9.2 0 01-3.2-6.15 24.39 24.39 0 01.39-7.07 19.49 19.49 0 011.38-5.28 7.29 7.29 0 013.74-3.83c2-1 9.22-1.66 12-2.08a17.86 17.86 0 016.28 5.25 42.5 42.5 0 015.35 10 13.8 13.8 0 011.25 4.32 4.91 4.91 0 01-1.46 4.12z" fill="none"/><path d="M378.06 296.16a5 5 0 001.07-1.75 5.85 5.85 0 00.27-2.44 11.39 11.39 0 00-.89-3.21 62.63 62.63 0 00-3.9-8.14 19.59 19.59 0 00-8.08-7.89h.17l-5.85.77c-1 .15-2 .3-3.05.49a14.63 14.63 0 00-3 .81 7 7 0 00-3.52 3.56 16.84 16.84 0 00-1.26 4.46c-.26 1.52-.5 3-.61 4.52a11.56 11.56 0 001.92 8 7 7 0 003.1 2.27 10.77 10.77 0 003.65.62 32 32 0 006.7-1 22.15 22.15 0 015.65-.63c1.68.1 3.08.37 4.24.37a5.78 5.78 0 002.59-.46c.55-.26.79-.48.82-.46a2.68 2.68 0 01-.76.58 5.65 5.65 0 01-2.65.58c-1.18 0-2.61-.2-4.25-.26a22.73 22.73 0 00-5.54.71 31.17 31.17 0 01-6.81 1.06 11.21 11.21 0 01-3.83-.62 7.5 7.5 0 01-3.36-2.43 12.1 12.1 0 01-2.08-8.45c.1-1.52.35-3 .6-4.58a17 17 0 011.32-4.62 7.52 7.52 0 013.86-3.87 14 14 0 013.16-.86c1-.2 2.07-.35 3.08-.49l5.85-.75h.17a20 20 0 018.24 8.16 60.24 60.24 0 013.81 8.26 11.36 11.36 0 01.83 3.32 5.9 5.9 0 01-.36 2.52 4.21 4.21 0 01-.83 1.35 1.89 1.89 0 01-.47.5z" fill="#263238"/><path d="M381.3 327.48a4 4 0 00-2.23-3.11c-1.86-.81-4 .31-5.35 1.85s-2.08 3.48-3.29 5.09a11.34 11.34 0 01-9.06 4.46c-4.26 0-8.51-2.51-12.58-1.25-1.39.43-2.78 1.52-2.79 3a4 4 0 001.29 2.6 13.93 13.93 0 007.63 4.18 38.72 38.72 0 0014.65-3.42c5.34-2.28 9.27-5.1 11.11-9.48a7.3 7.3 0 00.62-3.92z" fill="#e0e0e0"/><path d="M380.6 333.48a4.93 4.93 0 01-.85.94 30.34 30.34 0 01-2.63 2.27 38 38 0 01-21.26 7.8 27.21 27.21 0 01-3.48 0 5.08 5.08 0 01-1.26-.16c0-.12 1.81 0 4.71-.25a41.86 41.86 0 0021-7.72c2.38-1.72 3.7-2.97 3.77-2.88zm-1.47-22.58a7 7 0 01-.15 1.59c-.14 1-.36 2.48-.72 4.28a39.88 39.88 0 01-1.75 6.23 23.73 23.73 0 01-3.94 6.9 16.13 16.13 0 01-6.41 4.7 15.82 15.82 0 01-6.41 1 16.22 16.22 0 01-4.31-.75c-.49-.16-.86-.31-1.11-.42s-.37-.18-.36-.2a24.58 24.58 0 005.79.92 16 16 0 006.19-1.13 15.74 15.74 0 006.14-4.57c3.56-4.26 4.89-9.31 5.73-12.81.42-1.78.71-3.23.92-4.24a7.79 7.79 0 01.39-1.5zm-32.32 17.5a5.33 5.33 0 01-1.58-1.59 13.84 13.84 0 01-2.37-4.86 14.2 14.2 0 01-.38-5.41 5.57 5.57 0 01.58-2.16c.21 0-.71 3.4.4 7.4s3.54 6.5 3.35 6.62zm1.54-30.02a20.64 20.64 0 01-.91-3.83 35.4 35.4 0 01-.58-9.52 18 18 0 013.26-8.95 11.35 11.35 0 012-2.12 3 3 0 01.89-.6 28.85 28.85 0 00-2.52 3 19.15 19.15 0 00-3 8.76 41.13 41.13 0 00.39 9.39 30.89 30.89 0 01.47 3.87z" fill="#263238"/><path fill="#ce947a" d="M340.18 169.24l7.85 35.28 2.35 55.38 17.1-1.27 2.48-56.44-5.56-36.18-24.22 3.23z"/><path d="M352.2 280.3a1.26 1.26 0 01-1.76-.84c-.65-2.42-2.33-9-2.29-11.44.06-3.07 1.82-14.9 1.82-14.9l17.83.12 4.48 16.27s-1.17 6.68-2.34 7.07a20.31 20.31 0 01-2.26.44l-.49 2.05c-1 3.13-4.71 2.27-4.71 2.27a4.11 4.11 0 01-2.39 2.71 3 3 0 01-3.13-.71s-2.44 1.43-3.51.24-.77-3.75-.77-3.75a1 1 0 01-.48.47z" fill="#ce947a"/><path d="M352.72 281.17a1.75 1.75 0 000-.55 12.81 12.81 0 00-.07-1.49c-.1-1.25-.36-3-.65-4.86a41 41 0 01-.51-4.85c0-1.24.15-2 .1-2a1.82 1.82 0 00-.17.52 8.07 8.07 0 00-.17 1.49 29.14 29.14 0 00.43 4.9c.29 1.89.58 3.6.74 4.84s.25 2 .3 2zm4.14 2.19a4 4 0 00.28-1.3 18.62 18.62 0 00.09-3.2c-.07-1.25-.19-2.38-.3-3.18a5.42 5.42 0 00-.24-1.31 43.1 43.1 0 00.2 4.5 28.29 28.29 0 010 3.17 7.74 7.74 0 00-.03 1.32zm5.66-1.99a13.49 13.49 0 00.27-3.81 12.56 12.56 0 00-.54-3.78c-.09 0 .14 1.7.2 3.79s-.03 3.79.07 3.8zm4.67-2.3a12.84 12.84 0 00-.12-5.87 26.16 26.16 0 00.07 2.94c.04 1.61-.04 2.92.05 2.93zm-5.19-7.73s.1-.21 0-.55a2 2 0 00-.66-1.14 2 2 0 00-1.25-.45c-.34 0-.54.1-.53.14a3.46 3.46 0 011.56.56 3.41 3.41 0 01.88 1.44zm5.06-1.7c.09 0 0-.67-.69-1.1a1.26 1.26 0 00-1.28-.21c0 .1.56.12 1.1.49s.81.85.87.82zm-10.97.87c.09 0 .12-.48-.31-.81s-.89-.2-.86-.11.35.12.66.37.42.56.51.55z" fill="#a56349"/><path d="M350 253.12a1 1 0 000 .14l-.07.44c-.07.4-.16 1-.27 1.69-.23 1.47-.55 3.62-.91 6.32-.17 1.36-.36 2.84-.52 4.46a15 15 0 00-.11 2.53 25.64 25.64 0 00.36 2.68c.33 1.82.77 3.73 1.26 5.71.13.49.25 1 .38 1.5.07.25.14.5.2.76a1.74 1.74 0 00.38.77 1.36 1.36 0 001.67.3.43.43 0 00.16-.24 1.87 1.87 0 00.07-.22c0-.14.06-.27.08-.41a7.73 7.73 0 00.06-.85.16.16 0 00-.32 0 17.47 17.47 0 00.08 2.16 7.65 7.65 0 00.49 2.17 2 2 0 00.74.93 2 2 0 001.17.25 5.55 5.55 0 002.21-.73h-.21a3.1 3.1 0 001 .69 3.29 3.29 0 003-.3 4.46 4.46 0 001.74-2.46l-.2.12a5.3 5.3 0 003-.23 3.36 3.36 0 001.92-2.15c.16-.7.32-1.38.48-2.06l-.12.12c.44-.06.88-.14 1.31-.22l.64-.13.33-.09a1 1 0 00.32-.23 3.81 3.81 0 00.64-1.16c.16-.4.29-.8.41-1.2a46.34 46.34 0 001.05-4.61v-.06l-3.32-11.83c-.4-1.39-.71-2.49-.93-3.26-.11-.36-.2-.65-.26-.86a1.08 1.08 0 00-.1-.28 2.11 2.11 0 00.06.29c.06.22.13.5.22.87.2.78.5 1.88.87 3.29.77 2.85 1.87 6.92 3.2 11.86v-.06a45.79 45.79 0 01-1.06 4.57c-.12.39-.25.78-.41 1.17a3.63 3.63 0 01-.58 1.06.55.55 0 01-.2.15l-.3.08-.63.13c-.43.08-.86.15-1.3.21a.18.18 0 00-.13.12c-.16.68-.32 1.36-.49 2a3 3 0 01-1.74 2 5 5 0 01-2.78.21.19.19 0 00-.2.12 4.12 4.12 0 01-1.6 2.26 3 3 0 01-2.73.27 2.77 2.77 0 01-.91-.6.18.18 0 00-.21 0 5.19 5.19 0 01-2.06.69 1.7 1.7 0 01-1-.2 1.77 1.77 0 01-.61-.78 7.67 7.67 0 01-.47-2.08 18.78 18.78 0 01-.08-2.11h-.32a7 7 0 01-.06.79c0 .13 0 .27-.07.39s-.11.25-.08.29a1.31 1.31 0 01-.68.07 1.15 1.15 0 01-.6-.35 1.29 1.29 0 01-.31-.63c-.06-.26-.13-.51-.2-.76-.13-.5-.26-1-.38-1.5-.5-2-1-3.87-1.29-5.68a25.53 25.53 0 01-.37-2.65 15.78 15.78 0 01.09-2.49c.15-1.61.32-3.1.49-4.45.34-2.68.61-4.83.8-6.34.1-.72.17-1.29.22-1.69v-.44c0-.11.09-.24.09-.24zM286.54 102a29 29 0 0016.17-4.89s-3.69 9-16.15 8.12z" fill="#a56349"/><path d="M336.69 169.71l3.49-.47 6.37 28.63-.35 6.38 2.27 10.75.76 17.92s-8.59-26.94-9.05-33.37c-.5-6.9-3.49-29.88-3.49-29.88" opacity=".3"/><path d="M180.63 451.32s1.13 7.1 1.09 8.34l5 4.32 12.76-2.85 1.05-10.44z" fill="#f4c3ae"/><path d="M199.74 459.56v1.14s19.29 7.48 19.54 11.12l-38.12.26.43-12.69a21.77 21.77 0 0018.15.17z" fill="#90caf9"/><path d="M181.18 472.08l.1-3.05 36.5.86s1.7.73 1.52 1.93z" fill="#fff" opacity=".6"/><path d="M199.9 460.8c0 .19-.94.28-1.85.88s-1.39 1.4-1.57 1.32.1-1.15 1.22-1.86 2.24-.51 2.2-.34zm4.01 1.63c0 .18-.76.5-1.39 1.29s-.8 1.63-1 1.62-.31-1.06.49-2 1.89-1.09 1.9-.91zm2.3 4.77c-.17 0-.43-.89 0-1.91s1.34-1.44 1.42-1.28-.46.7-.83 1.55-.4 1.62-.59 1.64z" fill="#263238"/><path d="M222.14 451.32s1.13 7.1 1.09 8.34l5 4.32 12.77-2.85 1.06-10.44z" fill="#f4c3ae"/><path d="M241.26 459.56v1.14s19.29 7.48 19.54 11.12l-38.13.26.43-12.69a21.79 21.79 0 0018.16.17z" fill="#90caf9"/><path d="M222.69 472.08l.11-3.05 36.5.86s1.7.73 1.52 1.93z" fill="#fff" opacity=".6"/><path d="M241.41 460.8c0 .19-.93.28-1.85.88s-1.39 1.4-1.56 1.32.1-1.15 1.21-1.86 2.24-.51 2.2-.34zm4.01 1.63c0 .18-.76.5-1.39 1.29s-.8 1.63-1 1.62-.31-1.06.49-2 1.9-1.09 1.9-.91zm2.3 4.77c-.16 0-.43-.89 0-1.91s1.34-1.44 1.42-1.28-.46.7-.83 1.55-.4 1.62-.59 1.64zm6.49-193.89h-83.8l-8.66 39.68 17.31 141.08h26.8l6.13-124.26 6.45 124.26h28.73l12.07-139.52-5.03-41.24z" fill="#263238"/><path d="M190.15 452.1c-.15 0-.51-24.87-.82-55.53S188.89 341 189 341s.51 24.85.81 55.53.48 55.56.34 55.57zm42.91-.48a1.8 1.8 0 010-.31c0-.23.05-.53.09-.91.09-.83.21-2 .38-3.49.34-3 .8-7.41 1.32-12.83s1-11.88 1.53-19.07.85-15.09 1.09-23.39.27-16.23.22-23.43-.25-13.68-.47-19.12-.43-9.85-.61-12.89c-.07-1.49-.13-2.66-.18-3.5v-.91a2.38 2.38 0 010-.31 1.05 1.05 0 01.05.31l.09.9c.06.84.16 2 .28 3.5.24 3 .51 7.44.77 12.88s.47 11.93.58 19.14 0 15.13-.18 23.44-.65 16.23-1.13 23.42-1.07 13.65-1.64 19.07-1.08 9.8-1.49 12.82c-.21 1.48-.36 2.64-.48 3.47 0 .38-.1.68-.13.91a1.48 1.48 0 01-.09.3z" fill="#455a64"/><path d="M208.87 146l-32 1.73-2.61 12.06s8.83 7.09 9.71 7.38 21 3.1 21 3.1 21.65-10.09 21.36-10S208.87 146 208.87 146z" fill="#f4c3ae"/><path d="M181 90.15c-1.82-1.89-4.9-1.53-7.48-1a15.56 15.56 0 00-4.39 1.31 5.31 5.31 0 00-2.83 3.44c-.45 2.29 1.18 4.56.89 6.88a5.69 5.69 0 01-2.76 3.88 16.75 16.75 0 01-4.58 1.77 9.13 9.13 0 006.52 3.44c-.15.83-1.21 1.07-2 1.18s-1.9.58-1.78 1.42a1.7 1.7 0 00.76 1 23.54 23.54 0 0015.43 4.66c2.58-.15 5.31-.84 7-2.77s2-4.37 2-6.78a23.31 23.31 0 00-8.17-17.39" fill="#e0e0e0"/><path d="M179.59 91.35a11.09 11.09 0 0111-13.69 8.73 8.73 0 003.54-.23 9.58 9.58 0 002.53-2.07c2.34-2.12 5.6-2.83 8.71-3.32 4.43-.7 9.07-1.1 13.3.37s7.94 5.27 8 9.75c0 2-.63 3.88-.74 5.84s.54 4.21 2.32 5c1.15.54 2.65.44 3.47 1.41a2.59 2.59 0 01-.08 3 7.53 7.53 0 01-2.54 2 3.84 3.84 0 012.84 3.7 5.71 5.71 0 01-2.24 4.33 11.55 11.55 0 01-4.55 2.06c-7.73 1.93-15.94-.06-23.21-3.31a69.61 69.61 0 01-21.41-15l.62-.71" fill="#e0e0e0"/><path d="M177.61 95.07c.25-.71 2.34-5.5 3.09-5.45.53 0-.71 4.48-.43 4.94 2.71 4.35 3.57 9.65 3.31 14.77A66.6 66.6 0 01181 124m0 0a85.46 85.46 0 01-4.16-14.25" fill="#e0e0e0"/><path d="M195.62 164.91a14.14 14.14 0 01-14.24-13.71L180 105c-.77-12.41 5.81-23.2 18.23-23.62h1.15A22.21 22.21 0 01221 102.35c.61 10.76 1.14 22.65.93 28.4-.44 11.92-12.4 13.49-12.4 13.49s0 2.76.08 6.26a14.15 14.15 0 01-14 14.41z" fill="#f4c3ae"/><path d="M209.55 144.38a28.8 28.8 0 01-15.41-5s3.57 8.76 15.49 8zm-8.36-19.26a2.57 2.57 0 112.84 4.13 3.26 3.26 0 01-2.07.06 2.53 2.53 0 01-1.34-.82 2.3 2.3 0 01-.19-2.19 3.52 3.52 0 011.12-1.5" fill="#cc937f"/><path d="M218 110.35a1.7 1.7 0 01-1.68 1.68 1.63 1.63 0 01-1.72-1.58 1.71 1.71 0 011.68-1.68 1.63 1.63 0 011.72 1.58zm.37-2.19c-.22.21-1.49-.77-3.32-.81s-3.2.84-3.39.62.13-.5.73-.91a4.68 4.68 0 012.72-.77 4.48 4.48 0 012.63.92c.55.44.73.85.63.95zm-17.52 2.19a1.71 1.71 0 01-1.69 1.68 1.63 1.63 0 01-1.71-1.58 1.7 1.7 0 011.68-1.68 1.63 1.63 0 011.72 1.58zm-.12-2.18c-.21.22-1.48-.77-3.31-.81s-3.2.85-3.39.62.12-.5.72-.91a4.7 4.7 0 012.72-.77 4.61 4.61 0 012.64.92c.55.45.73.85.62.95zm5.89 13.76a11.67 11.67 0 013-.47c.47 0 .92-.12 1-.44a2.32 2.32 0 00-.28-1.39L209 116c-1.8-5.11-3.09-9.32-2.89-9.39s1.84 4 3.63 9.14c.44 1.26.85 2.47 1.24 3.62a2.64 2.64 0 01.2 1.84 1.16 1.16 0 01-.78.66 2.68 2.68 0 01-.8.09 12.27 12.27 0 01-2.98-.03zm-5.42 1.13c.3 0 .25 2 1.92 3.43s3.79 1.29 3.8 1.57c0 .12-.48.37-1.37.38a5 5 0 01-3.18-1.2 4.29 4.29 0 01-1.48-2.87c-.06-.83.17-1.32.31-1.31z" fill="#263238"/><path d="M201 101c-.2.49-2 .21-4.17.42s-3.91.75-4.19.3c-.12-.22.19-.68.91-1.14a6.82 6.82 0 013.12-1 6.91 6.91 0 013.24.46c.73.34 1.09.74 1.09.96zm16.77 2c-.33.41-1.58 0-3.1-.11s-2.81.21-3.09-.23c-.13-.21.08-.62.66-1a4.38 4.38 0 012.53-.62 4.3 4.3 0 012.46.9c.52.38.69.81.54 1.06z" fill="#e0e0e0"/><path d="M180.75 114c-.2-.09-8.13-2.62-8.07 5.54s8.24 6.41 8.25 6.17-.18-11.71-.18-11.71z" fill="#f4c3ae"/><path d="M178.42 122.62s-.14.1-.38.21a1.4 1.4 0 01-1.06 0c-.87-.3-1.61-1.67-1.66-3.14a4.72 4.72 0 01.39-2 1.62 1.62 0 011.06-1.1.71.71 0 01.84.38c.11.23.06.39.1.4s.18-.13.11-.47a1 1 0 00-.33-.51 1 1 0 00-.79-.2 2 2 0 00-1.47 1.28 4.76 4.76 0 00-.47 2.27c.06 1.65.91 3.18 2.1 3.51a1.5 1.5 0 001.29-.23c.25-.2.3-.38.27-.4z" fill="#cc937f"/><path d="M215.78 89.24c1.31-.75-3-5.13-6.25-6.55-4.94-2.14-12.45-3.38-16.95-2-5.42 1.64-9.89 4.42-12.54 9.42a32 32 0 00-3.33 16.44c.07 1.72-3.2 2.71-2.25 4.16 1.15 1.76.88.93 2.85 3.37.55.69 1.41 1.47 2 2.13 1.54 1.77 5.39 2.12 6.22.57a19.62 19.62 0 002.73-9.56c.07-2.5.12-6.29-.54-8.7a9.2 9.2 0 01-.33-2.75 7.88 7.88 0 011.28-4.29 6.09 6.09 0 01.73-.75 7.33 7.33 0 017.17-1.35c4.65 1.54 8.4 4.08 13.72 1.8a6.56 6.56 0 002.28-2.06 2.38 2.38 0 013.22.06z" fill="#e0e0e0"/><path d="M188.68 91.06a11.2 11.2 0 018.72-.93c2.43.75 4.53 2.31 6.87 3.31a16.27 16.27 0 0016.08-2.09 5.61 5.61 0 002.49-3.82 4.39 4.39 0 00-1.61-3.43 10.23 10.23 0 00-3.44-1.81A38.13 38.13 0 00200 80.93c-4.79.68-9.68 2.17-13.13 5.54a4.5 4.5 0 00-1.11 1.53 1.9 1.9 0 00.2 1.86 1.24 1.24 0 001.73.2" fill="#e0e0e0"/><path d="M220.54 109.86c0 .14-.44.31-1 .49s-1 .33-1.09.21.31-.49.92-.7 1.16-.14 1.17 0zm.7 1.29c0 .14-.61.17-1.31.18s-1.29 0-1.31-.18.56-.35 1.31-.35 1.33.2 1.31.35zm-28.41-.75c0 .15-.81.18-1.79.18s-1.78 0-1.79-.18.78-.35 1.79-.34 1.81.2 1.79.34zm-.1 1.65c0 .15-.72.13-1.56.13s-1.52 0-1.55-.12.66-.4 1.55-.4 1.59.26 1.56.39zm7.53 2.67s-.23.37-.82.7a4.5 4.5 0 01-2.54.51 4.59 4.59 0 01-2.41-1c-.51-.44-.71-.81-.66-.85a7.55 7.55 0 003.12 1.31 7.77 7.77 0 003.31-.67z" fill="#cc937f"/><path d="M201.09 114.32c.06.13-.81.58-2 .58a2.67 2.67 0 01-2-.57c0-.14.92.06 2 0s1.91-.15 2-.01zm17.71-1.14a6.62 6.62 0 01-6 .56c0-.15 1.36.08 3-.08s2.94-.66 3-.48z" fill="#cc937f"/><path d="M217.91 113.81a4.55 4.55 0 01-5.48 1 20.68 20.68 0 002.82-.06 21.57 21.57 0 002.66-.94zm-3.8-14.53a7.41 7.41 0 01-2.07.5 27.25 27.25 0 01-5.11.27 26.65 26.65 0 01-5.07-.69 6.45 6.45 0 01-2-.66c0-.16 3.16.69 7.11.83s7.11-.41 7.14-.25zm1.24-1.43a35 35 0 01-13.22 0c0-.15 3 .13 6.61.13s6.59-.28 6.61-.13zm-9.3 5.91c-.15 0-.19-.38-.21-.79s0-.77.15-.81.36.31.37.79-.18.85-.31.81zm2.51.33c-.05.13-.63 0-.87-.68s.05-1.16.18-1.09.12.46.3.9.46.78.39.87zm-7.63 18.45c0 .15-.58.24-1.09.67s-.74 1-.88.92-.14-.77.55-1.33 1.49-.4 1.42-.26zm-2.14-.15c0 .14-.34.22-.57.5s-.29.58-.43.63-.16-.07-.19-.27a.86.86 0 01.23-.7.88.88 0 01.67-.32c.2 0 .3.09.29.16zm-7.74 31.92s-.24 0-.56-.28a2.49 2.49 0 01-.78-1.49 6.41 6.41 0 01.1-2.48 5.25 5.25 0 000-2.78c-.17-.44-.5-.85-.7-1.37a2.48 2.48 0 010-1.55 2 2 0 000-1.15 4.74 4.74 0 00-.51-.94 1.89 1.89 0 01-.32-1.66c.17-.42.45-.47.45-.44s-.18.15-.26.49a1.83 1.83 0 00.44 1.41 4.8 4.8 0 01.61 1 2.39 2.39 0 010 1.4 2 2 0 000 1.26c.16.42.48.82.7 1.36a5.39 5.39 0 010 3.06 6.81 6.81 0 00-.21 2.33 2.66 2.66 0 00.56 1.41c.31.28.5.38.48.42zm5.18.99s-.26 0-.62-.21a3 3 0 01-1-1.46 26.43 26.43 0 01-1.34-5.51 13 13 0 01-.05-1.64 10.42 10.42 0 000-1.45c0-.9-.9-1.21-1.47-1.73a1.54 1.54 0 01-.53-.92.92.92 0 01.28-.77c.37-.33.68-.13.64-.11s-.26 0-.49.25a.72.72 0 00-.15.58 1.35 1.35 0 00.49.69c.26.22.61.39 1 .66a1.89 1.89 0 01.74 1.29 9.75 9.75 0 010 1.53 14 14 0 00.06 1.57 37 37 0 001.17 5.44 3.15 3.15 0 00.75 1.42c.29.27.53.33.52.37z" fill="#cc937f"/><path d="M198.52 76.14a2.07 2.07 0 01.46-.24q.47-.23 1.38-.57a22.84 22.84 0 015.33-1.21 23.75 23.75 0 018.09.51 16.65 16.65 0 014.52 1.7 8.49 8.49 0 014.51 8.8 10.59 10.59 0 01-1.66 4.55 10.21 10.21 0 01-3.15 3 12.12 12.12 0 01-3.5 1.51 14.73 14.73 0 01-5.45.39 13.48 13.48 0 01-1.47-.25 1.89 1.89 0 01-.5-.15s.71.11 2 .2a16 16 0 005.34-.54 12.16 12.16 0 003.36-1.52 10 10 0 003-2.94 10.36 10.36 0 001.56-4.35 8.07 8.07 0 00-4.26-8.3 16.82 16.82 0 00-4.38-1.68 23.91 23.91 0 00-7.95-.6 25.25 25.25 0 00-5.3 1c-1.25.46-1.91.74-1.93.69z" fill="#fff"/><path d="M226.32 81.42a3.77 3.77 0 01.07 2 9.23 9.23 0 01-2.12 4.35 17 17 0 01-3.65 3.15 6.83 6.83 0 01-1.72 1 8.15 8.15 0 011.51-1.28 24.4 24.4 0 003.47-3.19 10.22 10.22 0 002.12-4.1c.31-1.16.23-1.92.32-1.93zM196 82.86a27.82 27.82 0 00-6.41 3c-1.58 1.14-3 2.32-3.45 3.48a3.86 3.86 0 00-.2 2s-.16-.15-.25-.52a2.84 2.84 0 01.1-1.6c.45-1.35 1.88-2.61 3.5-3.78a16.46 16.46 0 014.71-2.2 5.71 5.71 0 012-.38zm-7.85-1.65c0 .06-.43.44-1.17 1.05a11.3 11.3 0 00-2.52 2.7 5.58 5.58 0 00-.86 3.46 14.24 14.24 0 00.36 1.5s-.51-.43-.72-1.44a5.39 5.39 0 01.77-3.8 9.47 9.47 0 012.75-2.68 4.2 4.2 0 011.39-.79zm-16.26 14.71a4 4 0 01.92-1.63 8.92 8.92 0 018.1-3.32 3.88 3.88 0 011.8.52c0 .08-.71-.1-1.83-.15a9.73 9.73 0 00-7.79 3.19c-.76.82-1.09 1.47-1.2 1.39zm5.95 4.23a2.51 2.51 0 01-.37-1.44 5.46 5.46 0 013.93-5.5 2.44 2.44 0 011.48-.11 13.32 13.32 0 01-1.36.46 5.71 5.71 0 00-3.68 5.15 13.9 13.9 0 010 1.44zm51.7-.48a3.21 3.21 0 01-1.79.06 6.75 6.75 0 01-5.67-5.89 3.31 3.31 0 01.12-1.78c.09 0 0 .68.24 1.72a7.09 7.09 0 005.38 5.59c1.04.25 1.71.22 1.72.3zm-.14 3.66a8 8 0 01-4.56-.19 7.86 7.86 0 01-4-2.25 33.5 33.5 0 004.11 1.75 37.3 37.3 0 004.45.69z" fill="#fff"/><path d="M216.3 145.9c1.27 0 14.76-1.8 23 3.63S269.7 197 269.7 197s6.76 22.37-2.74 26.8-34.61 17.94-34.61 17.94l-6.12-22.16 17.31-8v-21.37z" fill="#455a64"/><path d="M243.54 192.05l9.31.51a17.32 17.32 0 0112.89 6.89l6 8.06s3.21 4.17 2.27 6c-.77 1.5-2.29 1.38-3.76.06s-6.16-8.21-6.16-8.21 8.64 11.06 6.67 13.1-4.18-.64-4.18-.64 1.32 4.26-1.32 3.82-5.81-4.4-5.81-4.4.39 2.49-2 2.2-9.24-10.86-9.83-10.86-3.66-.29-3.66-.29z" fill="#ce947a"/><path d="M260.54 201.85a26.77 26.77 0 013.55 3.84 26.49 26.49 0 013.15 4.17 26.76 26.76 0 01-3.55-3.84 27 27 0 01-3.15-4.17zm-2.74 4.54a11 11 0 011.42 1.73c.83 1.11 2 2.63 3.28 4.29s2.5 3.14 3.37 4.22a9.72 9.72 0 011.34 1.8 9.57 9.57 0 01-1.62-1.56c-.94-1-2.2-2.47-3.5-4.14s-2.41-3.23-3.17-4.39a8.72 8.72 0 01-1.12-1.95zm-3.16 4.71a10.12 10.12 0 012.88 2.91 10.33 10.33 0 012 3.59c-.13.07-1.05-1.5-2.39-3.28a40.11 40.11 0 01-2.49-3.22z" fill="#a56349"/><path d="M237.57 167.82c-.09 0 .06-1.12 0-2.91a22.07 22.07 0 00-1.36-6.79 21.77 21.77 0 00-3.45-6c-1.13-1.38-2-2.12-1.91-2.19s.25.13.64.45a14.45 14.45 0 011.55 1.5 19.53 19.53 0 013.66 6.06 19.26 19.26 0 011.24 7 14.49 14.49 0 01-.18 2.14 2.31 2.31 0 01-.19.74z" fill="#263238"/><path d="M179.06 160.52s12.19 7 21.44 5a36.27 36.27 0 0015.8-8.52l16.36 37.45-9.69 75-29.23 3.81-9.69-71.15z" fill="#fafafa"/><path d="M178.15 147.3l-6.35 2.23-11.74 76.58S151 258 151.79 271.78s8.21 56.46 8.21 56.46l53.56-5.64-2.22-83.8s3.86-24.12-7.58-38.72-25.61-52.78-25.61-52.78z" fill="#455a64"/><path d="M208.87 145.61c.74 1.06 12.45 45.56 11.19 54.93s-8.08 29-8.08 29v92.78l47.26-4.32s3.87-33.87 0-50.09-9.51-35.43-9.51-35.43L246 175.85l-23.78-30.24z" fill="#455a64"/><path d="M261.54 297.28a1.2 1.2 0 01-.27-.14l-.76-.46c-.68-.41-1.66-1-3-1.7a16.21 16.21 0 00-5.09-1.71 9.63 9.63 0 00-3.32.13 12.57 12.57 0 00-3.44 1.46c-1.13.68-2.25 1.51-3.42 2.38l-3.66 2.7c-2.53 1.85-5.21 3.86-8.09 5.93a10.89 10.89 0 01-5 2.15 11.66 11.66 0 01-5.58-1.25c-3.51-1.59-7.14-3.17-10.93-4.66-1.9-.74-3.77-1.48-5.64-2.09a16.45 16.45 0 00-5.66-.95 10.51 10.51 0 00-5.19 1.72 24.81 24.81 0 00-4.13 3.41c-2.51 2.44-4.8 5-7.64 6.53a7.41 7.41 0 01-1.07.5 5.17 5.17 0 01-1.1.39 8.79 8.79 0 01-2.23.43 17.54 17.54 0 01-4.21-.26 47.26 47.26 0 01-12-4c-1.36-.62-2.4-1.14-3.1-1.49l-.8-.4c-.18-.1-.27-.15-.26-.16l.29.11.81.36 3.14 1.4a49.82 49.82 0 0012 3.83 17 17 0 004.13.22 8.47 8.47 0 002.14-.43 5.08 5.08 0 001-.38 8.91 8.91 0 001-.49c2.74-1.48 5-4 7.51-6.49a25.33 25.33 0 014.2-3.5 11.07 11.07 0 015.42-1.8 17 17 0 015.85 1c1.9.63 3.77 1.37 5.67 2.1 3.79 1.49 7.45 3.09 10.94 4.68a11.12 11.12 0 005.33 1.22 10.38 10.38 0 004.82-2l8.11-5.88 3.67-2.67a41.29 41.29 0 013.48-2.37 12.27 12.27 0 013.55-1.47 9.74 9.74 0 013.43-.1 15.83 15.83 0 015.15 1.82 32.74 32.74 0 012.94 1.79l.74.5c.19.02.28.08.27.09z" fill="#fafafa"/><path d="M197.87 226.09c.26-.09 8.41-4.55 10.47-4.81s18.08-1 18.08-1l4.28 15.51s-13.35 6.47-15.41 7-10.81 3.69-12.27 3.69-5.58-1.38-5.58-2.32a1.45 1.45 0 01.6-1.29 28.85 28.85 0 005.58-.34 26.07 26.07 0 002.83-1.2s-14.67 2.23-15.7 1.88-1.8-2.49-1.8-2.49-1.72-1.2-1.89-2.31.43-1.63 1.37-2.06 7.29-3.26 9.18-3.78 6.87-1.37 6.87-1.37-15.11 1.63-16 1.2-2-2.06-.43-3a21 21 0 016.09-2.66c1.67-.31 3.73-.65 3.73-.65z" fill="#f4c3ae"/><path d="M208.61 235.32a15 15 0 01-2.83 1.16c-1.78.63-4.27 1.41-7.07 2.12s-5.36 1.19-7.22 1.48a16.74 16.74 0 01-3.05.33 19.73 19.73 0 013-.69c1.84-.38 4.38-.93 7.17-1.63s5.27-1.42 7.08-2a20.77 20.77 0 012.92-.77zm-1.41-11.55a21.63 21.63 0 01-4.56 1.29 21.65 21.65 0 01-4.67.78 21.63 21.63 0 014.56-1.29 21.83 21.83 0 014.67-.78zm19.54 2.67a3.56 3.56 0 01-.61.08 5.62 5.62 0 00-1.53.61 5.08 5.08 0 01-2.48.79c-1-.06-2-.62-2.8.06a7.74 7.74 0 01-1.31 1 2.72 2.72 0 01-1.6.15c-1-.2-1.74-.58-2.43-.62a2 2 0 00-1.47.42c-.28.25-.34.48-.38.46s0-.26.23-.6a2.09 2.09 0 011.64-.65 20.3 20.3 0 012.48.51 2.25 2.25 0 001.31-.14 9.4 9.4 0 001.23-.94 2 2 0 01.82-.39 2.54 2.54 0 01.87 0c.54.08 1 .24 1.44.27a5.06 5.06 0 002.29-.64 4.49 4.49 0 011.67-.48c.42-.02.64.08.63.11zm.16 3.18a3.13 3.13 0 01-1.71 1.14 4.85 4.85 0 01-2.25.23 4.71 4.71 0 00-1.22-.1 1.29 1.29 0 00-.92.67 2.18 2.18 0 01-1.21.93 3.29 3.29 0 01-1.39 0 10.82 10.82 0 00-2.12-.32 1.88 1.88 0 00-1.23.51c-.22.24-.27.43-.32.42s-.05-.22.16-.54a1.93 1.93 0 011.36-.76 8.83 8.83 0 012.22.22 2 2 0 002.11-.82 3.05 3.05 0 01.52-.57 1.56 1.56 0 01.76-.3 5.07 5.07 0 011.35.13 4.87 4.87 0 002.08-.1 13.46 13.46 0 001.81-.74z" fill="#cc937f"/><path d="M182.07 236.28a4.32 4.32 0 01-1.1.05 12.9 12.9 0 01-1.3-.06c-.5-.05-1.08-.08-1.71-.19a32.12 32.12 0 01-4.37-1 44.87 44.87 0 01-5.14-1.94 60.61 60.61 0 01-8.65-4.89 55.95 55.95 0 01-2.46-1.73 4.44 4.44 0 01-.85-.71 4.19 4.19 0 011 .54L160 228a76.16 76.16 0 008.67 4.73 50.4 50.4 0 005.06 2 34.52 34.52 0 004.29 1.06c2.48.37 4.06.39 4.05.49zm10.32 13.28a10.24 10.24 0 01-1.67-.34 16.17 16.17 0 01-1.93-.53c-.75-.23-1.61-.47-2.52-.83a56.86 56.86 0 01-6.33-2.77 75.39 75.39 0 01-7.26-4.34 92.8 92.8 0 01-11.87-9.75c-1.41-1.36-2.52-2.5-3.26-3.31a10.81 10.81 0 01-1.11-1.29 10.64 10.64 0 011.26 1.14c.78.77 1.93 1.87 3.37 3.19a105.49 105.49 0 0011.9 9.58 81.85 81.85 0 007.19 4.34 60.2 60.2 0 006.24 2.85c.9.38 1.74.65 2.47.91s1.37.46 1.9.61a11.74 11.74 0 011.62.54zm55.81-40.3a23.64 23.64 0 01-3.12 1.57c-2 .91-4.69 2.13-7.72 3.42s-5.79 2.42-7.81 3.18c-1 .38-1.84.68-2.41.87a3 3 0 01-.91.24 25.82 25.82 0 013.18-1.45l7.75-3.32 7.77-3.28a23 23 0 013.27-1.23zm-20.08-41.96s.14.11.36.35l.94 1.07c.82.91 2 2.21 3.6 3.76s3.45 3.36 5.48 5.46a41.86 41.86 0 015.88 7.47 24.38 24.38 0 013.15 9c.38 2.91.5 5.53.6 7.73s.12 4 .13 5.22v1.42a1.51 1.51 0 01-.05.5 2.2 2.2 0 01-.06-.5q0-.57-.09-1.41c-.07-1.31-.17-3.07-.29-5.21s-.3-4.81-.71-7.68a24.26 24.26 0 00-3.12-8.78 42.29 42.29 0 00-5.78-7.4c-2-2.12-3.88-3.94-5.4-5.54s-2.71-2.94-3.49-3.89l-.86-1.13a2 2 0 01-.29-.44zM266 224.22a13 13 0 01-1.49.88l-4.16 2.26c-3.52 1.88-8.4 4.45-13.8 7.25-5.55 2.89-10.57 5.46-14.13 7.25l-.2.11-.06-.22c-.46-1.79-.84-3.27-1.12-4.39a10.44 10.44 0 01-.35-1.61 9.64 9.64 0 01.54 1.56c.32 1.11.76 2.57 1.28 4.35l-.26-.12c3.52-1.88 8.51-4.51 14.06-7.39s10.31-5.32 13.87-7.12l4.23-2.11a10.06 10.06 0 011.59-.7zm-52.69 19.23a4.51 4.51 0 010 .81c0 .57-.1 1.34-.18 2.3-.19 2-.33 4.89-.51 8.47-.32 7.15-.41 17-.24 28s.51 20.83.8 28c.14 3.54.26 6.43.34 8.48 0 1 .06 1.74.08 2.31a4.16 4.16 0 010 .81 4.79 4.79 0 01-.1-.8c0-.58-.11-1.34-.18-2.3-.14-2-.32-4.9-.51-8.48-.38-7.16-.79-17.06-.95-28s0-20.85.39-28c.23-3.58.42-6.48.68-8.47.11-1 .2-1.72.27-2.29a4.67 4.67 0 01.11-.84z" fill="#263238"/><path d="M171.8 149.53s-17.67 7.54-23.12 19.49-16.63 49.89-16.89 56.9 12.73 28.84 12.73 28.84l20.53-13-3.9-9.61 6.23-41.31z" fill="#455a64"/><path d="M163.37 470.26a2.49 2.49 0 01-2.49-2.5c0-2 .31-201.69.22-204.92-.19-6.88-4.38-10-4.56-10.17a2.5 2.5 0 012.9-4.07c.26.19 6.4 4.63 6.66 14.1.09 3.3-.21 196.83-.22 205.06a2.51 2.51 0 01-2.51 2.5zm-14.19-192.57a2.51 2.51 0 01-2.49-2.51v-19.35a2.47 2.47 0 012.31-2.64 2.55 2.55 0 012.68 2.36v19.64a2.5 2.5 0 01-2.5 2.5z" fill="#263238"/><path d="M153 242.17l-4.84 4.24c-1.21 1.06-2.73 10.44-2.73 10.44s5.3 5.67 7.57 5.9a6.06 6.06 0 004.08-1.29s2.27 1.29 3.64.16-1.9-8.48-1.9-8.48-1.22-3.55 2.23-3.33l1.48 2.66 3.71 6.35s2.27-.31 2.65-1.44-1-4.91-1-4.91a5.47 5.47 0 00.68-4.47c-.83-2.2-2.19-6.21-6.2-7.11s-9.37 1.28-9.37 1.28z" fill="#f4c3ae"/><path d="M156.9 260.55c-.07.05-.68-.75-1.8-1.92a28.61 28.61 0 00-4.85-4 4.79 4.79 0 01-1.32-1.37 2.81 2.81 0 01-.31-1.79 5.51 5.51 0 011.3-2.64c.53-.64 1-1.12 1.24-1.48s.42-.56.45-.54a7 7 0 01-1.39 2.24 5.36 5.36 0 00-1.12 2.48 2.31 2.31 0 00.27 1.47 4.27 4.27 0 001.19 1.21 23.88 23.88 0 014.81 4.21 8.54 8.54 0 011.53 2.13zm6.71-11.91c.11.1-.49.85-.74 1.94s-.1 2-.24 2.07-.58-.94-.27-2.19 1.16-1.93 1.25-1.82z" fill="#cc937f"/><path d="M136.57 222.3a8.76 8.76 0 011.42 0h1.67l2.2.28c.82.11 1.68.37 2.63.58.47.12.93.31 1.42.48a11.93 11.93 0 011.49.57 24.65 24.65 0 016 3.77 38.76 38.76 0 014.92 5.07c1.38 1.67 2.54 3.23 3.53 4.52s1.8 2.35 2.37 3a8.27 8.27 0 01.86 1.14 6.93 6.93 0 01-1-1c-.62-.68-1.48-1.69-2.5-3s-2.23-2.8-3.62-4.44a41.35 41.35 0 00-4.88-5 24.81 24.81 0 00-5.84-3.73 13.14 13.14 0 00-1.44-.58c-.48-.17-.93-.37-1.39-.5-.93-.22-1.77-.49-2.57-.63l-2.17-.35c-.64-.07-1.19-.09-1.65-.13a6.71 6.71 0 01-1.45-.05z" fill="#263238"/><path d="M163.61 186.89a12.82 12.82 0 01-.23 1.76c-.18 1.12-.46 2.74-.82 4.74-.78 4.08-1.82 9.56-3 15.61s-2.07 11.63-2.65 15.66c-.28 1.94-.51 3.55-.68 4.76a12.19 12.19 0 01-.29 1.75 11.12 11.12 0 01.09-1.77c.09-1.14.27-2.77.51-4.79.49-4 1.36-9.6 2.51-15.71s2.31-11.59 3.13-15.58l1-4.71a10.8 10.8 0 01.43-1.72z" fill="#263238"/><path fill="#455a64" d="M168.48 472.08h-9.38l1.74-7.46h5.55l2.09 7.46z"/></svg>