<svg xmlns="http://www.w3.org/2000/svg" viewBox="0 0 500 500"><rect x="63.47" y="294.13" width="372.3" height="48.51" rx="22.54" fill="#fafafa"/><path d="M349.85 294.13h64.2a21.71 21.71 0 0121.71 21.71v5.08a21.71 21.71 0 01-21.71 21.71h-64.2v-48.5z" fill="#fecc87"/><path d="M104.58 319.42v6.41H102v-6.08c0-2-1-2.95-2.66-2.95-1.86 0-3.12 1.13-3.12 3.37v5.66h-2.66v-15.55h2.62v5.66a5 5 0 013.73-1.42c2.68 0 4.67 1.53 4.67 4.9zm10.06 5.8a4.13 4.13 0 01-2.51.76c-2.45 0-3.86-1.3-3.86-3.78v-5.38h-1.84v-2.09h1.84v-2.56h2.62v2.56h3v2.09h-3v5.32c0 1.09.55 1.68 1.55 1.68a2.38 2.38 0 001.47-.46zm8.61 0a4.11 4.11 0 01-2.51.76c-2.45 0-3.85-1.3-3.85-3.78v-5.38H115v-2.09h1.85v-2.56h2.61v2.56h3v2.09h-3v5.32c0 1.09.55 1.68 1.55 1.68a2.38 2.38 0 001.47-.46zm14.04-4.98a5.45 5.45 0 01-5.67 5.74 4.63 4.63 0 01-3.59-1.51v5.42h-2.62v-15.25h2.5v1.47a4.61 4.61 0 013.71-1.59 5.44 5.44 0 015.67 5.72zm-2.66 0a3.32 3.32 0 10-3.31 3.49 3.25 3.25 0 003.31-3.49zm4.28-3.99a1.72 1.72 0 113.43 0 1.72 1.72 0 11-3.43 0zm0 8a1.72 1.72 0 113.43 0 1.72 1.72 0 11-3.43 0zm11.61-16.06h2.34L146 327.92h-2.4zm6.3 0h2.35l-6.91 19.73h-2.35zm20.03 6.45l-4.12 11.19h-2.52l-2.89-7.71-2.93 7.71h-2.52l-4.1-11.19h2.47l2.95 8.26 3.08-8.26h2.2l3 8.3 3-8.3z" fill="#263238"/><path d="M195.9 314.64l-4.13 11.19h-2.51l-2.89-7.71-2.94 7.71h-2.51l-4.11-11.19h2.48l3 8.26 3.08-8.26h2.2l3 8.3 3-8.3z" fill="#263238"/><path d="M215 314.64l-4.13 11.19h-2.51l-2.89-7.71-2.94 7.71H200l-4.11-11.19h2.47l3 8.26 3.08-8.26h2.2l3 8.3 3-8.3zm.18 9.6a1.72 1.72 0 113.44 0 1.72 1.72 0 11-3.44 0z" fill="#263238"/><path d="M413.22 342.63l2.07-.12c.68-.07 1.52-.22 2.52-.38a24.69 24.69 0 003.37-1 22.43 22.43 0 008.17-5.38 24 24 0 003.7-5.07 22.66 22.66 0 002.28-6.75 39.51 39.51 0 00.3-8 21.89 21.89 0 00-2-8.53 22.73 22.73 0 00-5.72-7.64 22 22 0 00-9.12-4.77 23 23 0 00-5.41-.71h-43.51L86 294.34a22.42 22.42 0 00-21.9 17.87c-.11.84-.28 1.66-.35 2.5s-.11 1.67-.1 2.52v2.54c0 .84.08 1.67.11 2.51a22.29 22.29 0 0019.1 19.9 18 18 0 002.43.21c.81.06 1.64 0 2.46 0h80.27l127.6.05 86 .07h31.54-31.54l-86 .07H85.31a18.57 18.57 0 01-2.48-.21 22.71 22.71 0 01-19.46-20.28c0-.85-.11-1.71-.12-2.55V317c0-.84.07-1.71.11-2.56s.23-1.69.35-2.54A22.85 22.85 0 0186 293.91l283.84.06h43.51a23 23 0 015.47.73 22.1 22.1 0 019.2 4.83 23 23 0 015.77 7.72 22.35 22.35 0 012 8.61 40.68 40.68 0 01-.32 8 23.24 23.24 0 01-2.32 6.79 24 24 0 01-3.74 5.09 22.46 22.46 0 01-8.23 5.37 24.56 24.56 0 01-3.39 1c-1 .15-1.84.31-2.53.36z" fill="#263238"/><path d="M386.34 325a10.51 10.51 0 1110.51-10.5 10.51 10.51 0 01-10.51 10.5zm0-20.18a9.68 9.68 0 109.66 9.68 9.69 9.69 0 00-9.66-9.68z" fill="#fff"/><path d="M402.84 332.89a.43.43 0 01-.3-.13L393 322.45a.42.42 0 01.61-.57l9.59 10.31a.43.43 0 010 .59.46.46 0 01-.36.11z" fill="#fff"/><path d="M222.41 329.47c-.12 0-.22-4.94-.22-11s.1-11 .22-11 .21 4.94.21 11-.09 11-.21 11z" fill="#fecc87"/><path d="M248.19 126.91a157.65 157.65 0 00.05 39c.41 3.28 1.11 6.86 3.69 8.91 3.08 2.44 7.91 1.59 10.71-1.16s3.84-6.88 3.79-10.81-1.06-7.76-1.77-11.62c-.94-5.09-1.41-10.37-3.69-15s-7-8.6-12.12-8.08m6.92-39.33c5.87-5.78 18.46-4.31 25 .66s10 13.16 11.38 21.29 1.06 16.45 1.73 24.66 2.52 16.68 7.59 23.18c2.17 2.77 4.88 5.12 6.81 8.06a18.51 18.51 0 01.76 19 16.72 16.72 0 01-17 8c-6.82-1.29-12.06-7.1-14.67-13.53s-3-13.51-3.57-20.43a563.47 563.47 0 00-8.68-64.18" fill="#263238"/><path d="M248.59 152.34l6.11-1.66h26.93l14.6 8.62s-25.53 11.49-35 6.88a26.57 26.57 0 01-12.65-13.07" fill="#c69481"/><path d="M281.84 103.59L282 100l-21.5-4.78c-6.65-.92-14.07 5.55-14.7 12.23-.7 7.42-1.26 16.51-.55 22.08 1.42 11.22 9.93 12.9 9.93 12.9l.91 24.51 24.68 1.06z" fill="#c69481"/><path d="M249 115.28a1.43 1.43 0 001.33 1.49 1.38 1.38 0 001.52-1.25 1.43 1.43 0 00-1.33-1.48 1.37 1.37 0 00-1.52 1.24zm-1-3.87c.17.19 1.28-.58 2.82-.52s2.65.85 2.82.67-.09-.42-.57-.8a4 4 0 00-2.24-.77 3.89 3.89 0 00-2.26.65c-.45.36-.57.68-.57.77zm16.06 4.59a1.43 1.43 0 001.33 1.49 1.38 1.38 0 001.52-1.25 1.43 1.43 0 00-1.34-1.48 1.36 1.36 0 00-1.51 1.24zm-.9-3.79c.17.19 1.28-.58 2.82-.53s2.64.86 2.82.68-.09-.43-.57-.8a4 4 0 00-2.25-.77 3.79 3.79 0 00-2.25.65c-.48.35-.65.68-.57.77zm-5.94 12.04a10.34 10.34 0 00-2.49-.53c-.39 0-.76-.14-.82-.41a2 2 0 01.3-1.16c.4-.94.82-1.92 1.25-3 1.75-4.21 3-7.68 2.86-7.75s-1.73 3.29-3.47 7.51l-1.21 3a2.33 2.33 0 00-.25 1.54 1 1 0 00.63.6 3 3 0 00.66.11 10 10 0 002.54.09z" fill="#263238"/><path d="M255.21 142.45a29.5 29.5 0 0015.44-3.53s-3.78 7.72-15.3 6.34zm2.54-14.45a2.8 2.8 0 012.52-1 2.54 2.54 0 011.72 1 1.62 1.62 0 01.07 1.84 1.88 1.88 0 01-2 .45 5.85 5.85 0 01-1.93-1.24 1.56 1.56 0 01-.42-.47.49.49 0 010-.57" fill="#936457"/><path d="M261.72 125.46c-.25 0-.31 1.65-1.78 2.79s-3.24.9-3.26 1.13.39.34 1.14.38a4.14 4.14 0 002.72-.85 3.66 3.66 0 001.38-2.34c.08-.7-.09-1.12-.2-1.11zm1.28-17.9c.14.42 1.68.27 3.48.54s3.25.82 3.5.45c.11-.18-.13-.58-.71-1a5.71 5.71 0 00-2.57-1 5.83 5.83 0 00-2.74.23c-.73.22-1.07.58-.96.78zm-14.76-1.43c.26.36 1.34 0 2.61.05s2.35.31 2.61-.05c.11-.18 0-.53-.51-.88a3.77 3.77 0 00-4.2 0c-.46.35-.62.75-.51.88z" fill="#263238"/><path d="M281.51 121.14c1.95-1.29 2.8-12.42 2.72-17s-2.53-8.64-5.75-11.88C275 88.76 270.92 87.53 266 87c-2.76-.3-5.72-.66-8.39.1s-4.16 1.7-5.46 4.15c-.72 1.36-.91 3.3.34 4.19s2.82.17 4.23-.23c3.74-1.07 7.84.14 11.07 2.3s5.77 5.21 8.26 8.21c3.23 3.91 4.76 10.41 5.48 15.42" fill="#fecc87"/><path d="M243.85 95.12c1.43-4.54 10.27-10.16 19.63-6 4.3.15 8.48.86 13.06 5 8.27 7.55 5.1 26 5.1 26a41.91 41.91 0 01-13.19-10.65c-5.31-6.4-8.22-11.41-9.26-14.45-8.64 2.08-11.9 9.63-13.42 12.9-1.95-2.14-4.45-4.79-1.92-12.8z" fill="#263238"/><path d="M279.81 119.06c.18-.09 7.36-2.51 7.43 4.92s-7.4 6-7.41 5.75-.02-10.67-.02-10.67z" fill="#c69481"/><path d="M282.07 126.89s.13.09.35.19a1.27 1.27 0 001 0 3.2 3.2 0 001.45-2.89 4.35 4.35 0 00-.38-1.84 1.5 1.5 0 00-1-1 .65.65 0 00-.76.36c-.1.21-.05.36-.09.37s-.16-.12-.1-.43a.84.84 0 01.28-.47 1 1 0 01.72-.19 1.8 1.8 0 011.36 1.14 4.41 4.41 0 01.47 2.06c0 1.5-.79 2.91-1.86 3.23a1.35 1.35 0 01-1.18-.19c-.25-.16-.33-.32-.26-.34z" fill="#936457"/><path d="M199.85 284.82l-15 1.66-9.13 5.73s-.18 1.86 2.42 1.56l5.15-2.17-4.08 4.46s1 1.79 3.23.54a12.66 12.66 0 003.62-3.14l9-.63s-6.8 6.54-5.55 8.24 2.06 1.34 3 .72 1.53-2.78 3.76-3.49 5.94-2.81 9.94-4.71c3.45-1.63 6.94-13.3 6.94-13.3l-11.49-2.24z" fill="#c69481"/><path d="M193.89 288.64c0 .19-3.78.92-8.51 1.63h-.12l.19-.1c-3.3 3.38-6.07 6-6.21 5.87s2.42-3 5.72-6.35l.08-.09h.24c4.72-.72 8.58-1.15 8.61-.96z" fill="#936457"/><path fill="#c69481" d="M289.66 379.01l-2.79-24.18-22.42 6.28 5.66 23.19 19.55-5.29z"/><path d="M289.91 379l3.79 28.18 9.43 21.43a2.91 2.91 0 01-1.68 3.91 2.91 2.91 0 01-2.65-.34c-4.93-3.44-23-16.16-23.19-18.24-.19-2.41-6-29.46-6-29.46z" fill="#fecc87"/><path d="M301.45 432.47L275.31 412l.19 1.19a4.36 4.36 0 001.47 2.64c2.12 1.82 8.06 6.7 21.75 16.31a2.89 2.89 0 002.73.33zM279.65 402a1.76 1.76 0 01.83 2.2 1.69 1.69 0 01-2.17.85 1.85 1.85 0 01-.87-2.33 1.75 1.75 0 012.35-.63" fill="#fff" opacity=".6"/><path d="M293.09 421.21a8.71 8.71 0 012.12-2.57c1.51-1.1 3.13-.95 3.14-1.13s-.38-.24-1.05-.22a4.42 4.42 0 00-2.45.84 4.51 4.51 0 00-1.62 2c-.23.65-.23 1.07-.14 1.08zm2.6 3.45c.15.1.91-1 2.29-1.6a23.11 23.11 0 012.69-.79c.06-.16-1.39-.54-3 .22s-2.14 2.12-1.98 2.17zm-7.08-7.66c.15.11 1.31-1.52 3.37-2.71s4-1.44 4-1.63-2.13-.22-4.33 1.09-3.19 3.17-3.04 3.25zm-1.87-8.49c.1.15 1.55-.74 3.56-1.13s3.68-.16 3.71-.34-1.68-.72-3.84-.27-3.54 1.62-3.43 1.74zm-1.33-8.25c.12.15 1.53-1 3.68-1.27s3.8.52 3.87.35-.33-.37-1-.65a6.3 6.3 0 00-2.92-.32 6.19 6.19 0 00-2.75 1c-.65.45-.93.84-.88.89zm3.38-2.83a2.37 2.37 0 00-.13-1.07 7.45 7.45 0 00-1.28-2.65 3.33 3.33 0 00-1.65-1.34 1.18 1.18 0 00-1.27.46 1.93 1.93 0 00-.24 1.34 4.11 4.11 0 004.16 3.2 4.76 4.76 0 004.24-3.2 1.63 1.63 0 00-.13-1.37 1.16 1.16 0 00-1.29-.42 4 4 0 00-1.69 1.26 8.33 8.33 0 00-1.58 2.48 2.5 2.5 0 00-.27 1 13.28 13.28 0 012.17-3.22 3.75 3.75 0 011.5-1.05.6.6 0 01.7.22 1.1 1.1 0 010 .9 4.27 4.27 0 01-3.71 2.74 3.57 3.57 0 01-3.57-2.67 1.38 1.38 0 01.13-.94.64.64 0 01.69-.27A3.08 3.08 0 01287 394a11 11 0 011.79 3.43zM237.8 240.52l-.41 6.1s-5.15 9.75-5.62 18.49c-.28 5.07-.39 12.55-.44 17.93a22.67 22.67 0 003.46 12.25l10.32 16.55-1.42 18.69L262.4 368l27.69-7-3.28-69.15-11.14-36.52-2.12-17.33z" fill="#263238"/><path d="M293.58 236.72l.49 7.95s22.24-47.36 52.58-53.2c19.71-3.8 27.48 17.69 20.56 34.75-4.16 10.27-21.44 29.93-21.46 30.38-.55 10.55-11.29 9-11.29 9S321 286.85 317 291c-2.74 2.85-31.65 1.83-31.65 1.83l-9.09-18.79-3.66-36z" fill="#263238"/><path d="M255.13 286.37a8.83 8.83 0 01-.52 1.71c-.41 1.2-.93 2.74-1.57 4.58-1.31 3.87-3 9.25-4.68 15.27s-2.88 11.53-3.71 15.53c-.39 1.91-.71 3.51-1 4.75a8.05 8.05 0 01-.42 1.73 9.66 9.66 0 01.18-1.78c.14-1.13.4-2.77.76-4.79.72-4 1.9-9.57 3.54-15.61s3.44-11.41 4.87-15.25c.71-1.92 1.32-3.47 1.77-4.52a9.49 9.49 0 01.78-1.62zm-6.9-7.46a38.46 38.46 0 01-.44 4.5c-.32 2.78-.69 6.61-.9 10.86s-.21 8.11-.16 10.9a38.26 38.26 0 010 4.52 4.71 4.71 0 01-.2-1.2c-.09-.78-.18-1.91-.26-3.31a106 106 0 010-10.94 107.75 107.75 0 011.08-10.89c.22-1.38.42-2.5.59-3.26a4.66 4.66 0 01.29-1.18zm41.86 80.62a2.48 2.48 0 010-.34c0-.26 0-.58-.08-1 0-.91-.14-2.18-.24-3.8-.19-3.35-.45-8.11-.78-14-.6-11.85-1.43-28.15-2.33-46.15-.29-4.5-.19-8.94-1.14-13A36.61 36.61 0 00280.9 270a34.65 34.65 0 00-15.24-13.43 36.86 36.86 0 00-13.45-3.3c-1.64-.07-2.92 0-3.79 0l-1 .05h-.34a26.67 26.67 0 015.13-.3 35.86 35.86 0 0113.63 3.13 35.38 35.38 0 018.25 5.12 35.91 35.91 0 017.31 8.42 36.93 36.93 0 014.68 11.39c1 4.21.87 8.67 1.16 13.15.84 18 1.6 34.3 2.15 46.16.24 5.87.43 10.64.57 14 0 1.62.1 2.89.13 3.81v1c0 .27.02.33 0 .33zm-12.67-98.4c-.13-.12 2.52-3.55 5.92-7.67s6.28-7.37 6.42-7.26-2.51 3.55-5.92 7.67-6.28 7.37-6.42 7.26zm44.3-28.06a123.24 123.24 0 018.62-12.31 31 31 0 014.12-4.61 56 56 0 01-3.59 5.07c-2.25 3.09-5.29 7.42-8.35 12.41s-5.94 9.56-6.47 13.38a12.75 12.75 0 00.58 6.12 3.39 3.39 0 01-.81-1.51 10.63 10.63 0 01-.43-4.71 19.48 19.48 0 012.2-6.6" fill="#455a64"/><path d="M337.16 210c.14.13-.94 1.48-1.61 3.45s-.69 3.69-.89 3.7-.47-1.81.28-3.91 2.11-3.34 2.22-3.24zm-62.67 100.24c-.16-.08 1.23-3.33 3.11-7.26s3.54-7.05 3.7-7-1.23 3.32-3.11 7.25-3.54 7.08-3.7 7.01zm-15.67-10.75c.17-.06.88 1.45 1.59 3.38s1.14 3.54 1 3.6-.88-1.45-1.58-3.38-1.18-3.53-1.01-3.6z" fill="#455a64"/><path d="M222.85 173.14c1.6-13.84 10.48-16.94 10.48-16.94l1.3 81.77-10.2 42.23a9.46 9.46 0 01-12 6.83l-20.66-6.28s29.49-93.75 31.08-107.61zm86.22-7.14s5.11 11.63 5.11 17.75 6.12 45.77 0 54.17-18.18 8.08-21.57 7.83c-4.67-.39-26.45-40.67-25.56-41.19l12.25-2.66s8.58.53 12.67 4 8.09-.53 8.09-.53l8.65-37.17" fill="#fecc87"/><path d="M292 156.2s14 4.8 17.07 9.8-14.59 70.42-14.59 70.42l-56.68 4.06s-4.47-.81-5.69-4.87 1.22-79.45 1.22-79.45l15.77-5.58s6.78 7 11.66 8.43S292 156.2 292 156.2z" fill="#fecc87"/><path d="M236.88 174.15a2.94 2.94 0 01.06.67c0 .52 0 1.16.06 1.93v7.11a233.32 233.32 0 01-1.74 23.37c-.57 4.54-1.25 8.86-1.95 12.76s-1.46 7.39-1.38 10.37a14.45 14.45 0 001.62 6.75 19.53 19.53 0 001.46 2.13s-.2-.13-.51-.45a9.25 9.25 0 01-1.17-1.56 14.17 14.17 0 01-1.86-6.86c-.14-3 .57-6.6 1.25-10.48s1.33-8.21 1.89-12.74c1.14-9.06 1.69-17.32 1.94-23.31.1-2.92.18-5.32.24-7.09 0-.77 0-1.41.06-1.93a2.09 2.09 0 01.03-.67zM292 209.16a25 25 0 00-2-2.38 10.07 10.07 0 00-2.69-1.86 13 13 0 00-3.89-1 15.86 15.86 0 00-7.29.42 6.25 6.25 0 00-1.91 1.08c-.37.38-.59.58-.63.56s.12-.29.45-.73a5.47 5.47 0 011.92-1.34 14.72 14.72 0 017.55-.63 12.86 12.86 0 014.06 1.13 9.58 9.58 0 012.76 2.08 8.22 8.22 0 011.33 1.9c.27.46.34.75.34.77zm-14.76 12.49c.1 0 .55 1.53 1.59 3.93a73.75 73.75 0 004.79 9 71.8 71.8 0 005.93 8.31 19.3 19.3 0 002.14 2.21 6.17 6.17 0 00.92.63s-.46 0-1.08-.43a14.76 14.76 0 01-2.32-2.11 60.9 60.9 0 01-10.8-17.46 30.49 30.49 0 01-1-3 4.09 4.09 0 01-.17-1.08zm21.6-49.12c-.14-.09 1.15-2.13 3.28-4.2s4.19-3.32 4.28-3.18-1.76 1.61-3.83 3.64-3.57 3.86-3.73 3.74zm-67.46-14.2c.09-.14 2.38 1.27 4.44 3.82s3 5.06 2.84 5.12-1.33-2.26-3.35-4.71-4.04-4.08-3.93-4.23z" fill="#263238"/><path d="M283.91 230.22a15.9 15.9 0 01-2-3.21 46.07 46.07 0 01-5-17.38 15.09 15.09 0 010-3.77 35.41 35.41 0 01.48 3.72 59.43 59.43 0 001.79 8.81 60.45 60.45 0 003.14 8.42 33.25 33.25 0 011.59 3.41zM305 213.25a20.36 20.36 0 01-2.1-2 49.94 49.94 0 00-5.32-4.57 18.3 18.3 0 00-3.22-2 4.19 4.19 0 00-2.91-.31 3.21 3.21 0 00-1.64 1.12c-.27.4-.33.68-.38.67s-.06-.31.17-.79a3 3 0 011.7-1.43 4.48 4.48 0 013.29.19 16.77 16.77 0 013.37 2.06 34.6 34.6 0 015.27 4.78 9.74 9.74 0 011.77 2.28z" fill="#263238"/><path d="M278.55 226.21c-2.93.74-5.9-1-8.92-1.12-2.74-.14-5.36 1-8 1.71a27.55 27.55 0 01-17.43-1.05 4.71 4.71 0 01-1.76-1.09 2.22 2.22 0 01-.33-2.2c5.09-.05 10.17.17 15.27.12a5.83 5.83 0 003-.59 1.29 1.29 0 00.54-.56s3.05-.1 4.14-.11c2.45 0 5.28.19 7.73.18 1.07 0 4.51.15 4.43.15m18.11-17.26a23.65 23.65 0 0111.67 5.74 3.84 3.84 0 01.93 1.12 1.4 1.4 0 010 1.39 1.45 1.45 0 01-1.61.46 4.29 4.29 0 01-1.51-.95l-9.72-8.15" opacity=".3"/><path d="M298.05 176.35a23.17 23.17 0 01.09 4.15c-.05 2.55-.23 6.09-.6 10s-.86 7.4-1.29 9.92a22 22 0 01-.86 4.05 30.47 30.47 0 01.41-4.12c.31-2.53.73-6 1.1-9.91s.61-7.39.78-9.93a30.58 30.58 0 01.37-4.16z" fill="#263238"/><path fill="#455a64" d="M253.89 204.37l-5.93-12.78-20.39-1.28-.72 1.19 15.46 29.78 18.63.15-7.05-17.06z"/><path d="M253.17 205.56l-5.93-12.79-20.39-1.28 14.74 31 16.53.12a3.93 3.93 0 002.67-1l.15-.14z" fill="#455a64"/><path d="M237.7 197.51a1 1 0 10-.06-1.45 1 1 0 00.06 1.45z" fill="#ebebeb"/><path d="M277.06 206.21l-7.88.46a11.17 11.17 0 00-8.45-4.71l-2.81-.18-2.06 2s-13.83-.26-14.44 1.41v.87l11.75 1.53s-10-.66-10.64-.68-2.79-.34-2.82.84c0 1 1.08 1.81 2.8 2.17.7.15 9.35 1.45 9.35 1.45l-9.57-.69c-1.07-.08-1 1.65-.42 1.91s12.53 4.54 12.53 4.54a7.4 7.4 0 01-3.82 1c-1.68-.22-4.43-2.57-5.09-1.58s-.58 1.59-.24 1.85a44.44 44.44 0 005.48 3c1.3.44 14.66-.23 14.66-.23l13.95.48z" fill="#c69481"/><path d="M251.15 203.69a41.11 41.11 0 014.85.13 39 39 0 014.84.43 38.67 38.67 0 01-4.85-.13 36.85 36.85 0 01-4.84-.43z" fill="#936457"/><path d="M252 203.13s-.14-.27-.37-.76-.59-1.28-1-2.13c-.86-1.92-2-4.46-3.32-7.38h.08l-4.67-.3-11.27-.75-3.41-.25-.93-.08h-.32 1.25l3.42.19 11.27.69 4.67.31h.06v.05l3.26 7.41.93 2.15c.29.57.35.85.35.85z" fill="#263238"/><path d="M330.81 271.42l-13.58 17.08s13.72 18.24 11.52 21.64l-35-23.85 20.07-27.48z" fill="#fecc87"/><path d="M307.78 279.25a1.72 1.72 0 00-2.13.87 1.67 1.67 0 00.85 2.13 1.83 1.83 0 002.26-.95 1.73 1.73 0 00-1.13-2.11m-13.87 7.1l2-2.77 33 24.21a2.92 2.92 0 010 2.79z" fill="#fff" opacity=".6"/><path d="M317.91 288.73c-.13.16-1-.38-2.23-.45s-2.17.31-2.27.13.85-1 2.32-.84 2.33 1.03 2.18 1.16zm2.48 4.11c-.08.19-1-.06-2.09.23s-1.8.91-2 .78.43-1.15 1.78-1.48 2.42.31 2.31.47zm-1.13 5.78c-.17-.08.21-1.08 1.31-1.68s2.14-.38 2.11-.19-.87.32-1.77.83-1.47 1.14-1.65 1.04zm1.31-14.13c-.18.1-.77-.69-1.76-1.32s-1.94-.87-1.92-1.08 1.16-.28 2.31.48 1.55 1.85 1.37 1.92zm2.68-3.49c-.05.07-.79-.31-1.7-1.27a9.16 9.16 0 01-1.38-1.87 9.52 9.52 0 01-.6-1.24 2.8 2.8 0 01-.22-.78.91.91 0 01.58-.94 1.13 1.13 0 011 .16 2.34 2.34 0 01.57.56 7.31 7.31 0 01.79 1.14 7.4 7.4 0 01.82 2.2 3.52 3.52 0 010 2.12c-.12 0-.12-.8-.48-2a8.22 8.22 0 00-.89-2 7.68 7.68 0 00-.75-1c-.29-.36-.6-.59-.81-.49s-.1.05-.1.22a2 2 0 00.16.57 9.77 9.77 0 00.52 1.18 12.94 12.94 0 001.18 1.85c.77.98 1.38 1.5 1.31 1.59z" fill="#263238"/><path d="M322.85 281.08a3.5 3.5 0 01.77-2 6.85 6.85 0 011.61-1.7 7 7 0 011.2-.71 1.75 1.75 0 011.72-.06 1 1 0 01.37 1 3.09 3.09 0 01-.29.75 4.58 4.58 0 01-.85 1.15 4.86 4.86 0 01-2 1.23 2.72 2.72 0 01-2.13 0 19 19 0 002-.49 4.77 4.77 0 001.72-1.21 4.26 4.26 0 00.7-1c.21-.41.29-.8.13-.86a1.19 1.19 0 00-1 .12 6.12 6.12 0 00-1.1.61 7.61 7.61 0 00-1.7 1.49c-.76.96-1 1.72-1.15 1.68z" fill="#263238"/><path fill="#c69481" d="M334.46 265.59l-4.28 5.36-15.96-11.84 2.91-4.45 17.33 10.93z"/></svg>