<!--?xml version="1.0" encoding="utf-8"?-->
<!-- Generator: Adobe Illustrator 18.1.1, SVG Export Plug-In . SVG Version: 6.00 Build 0)  -->

<svg version="1.1" id="_x32_" xmlns="http://www.w3.org/2000/svg" xmlns:xlink="http://www.w3.org/1999/xlink" x="0px" y="0px" viewBox="0 0 512 512" style="width: 256px; height: 256px; opacity: 1;" xml:space="preserve">
<style type="text/css">
	.st0{fill:#fff;}
</style>
<g>
	<path class="st0" d="M503.226,149.258c-8.387-23.098-22.152-45.049-39.507-63.626c-17.371-18.562-38.33-33.794-61.525-42.956
		c-14.495-5.72-28.692-8.573-42.144-8.58c-5.586,0-11.039,0.506-16.327,1.505v28.423c4.931-1.474,10.353-2.279,16.327-2.279
		c9.519,0,20.32,2.026,31.999,6.629c12.44,4.916,24.565,12.223,35.664,21.303c16.655,13.609,31.016,31.188,41.011,49.965
		c5.006,9.378,8.939,19.053,11.591,28.647c0.789,2.838,1.46,5.676,2.01,8.507L221.372,318.185c-1.237-4.872-2.697-9.72-4.44-14.525
		c-8.164-22.495-21.63-43.984-38.598-62.151c-16.983-18.16-37.482-33.027-59.962-41.891c-5.764-2.28-11.471-4.06-17.072-5.378
		l68.646-37.205v-31.441L36.543,197.875l-0.268,0.186c-11.367,6.845-20.633,16.886-26.83,29.139C3.218,239.453,0,253.851,0,269.665
		v154.513l216.858,85.517l5.675-3.069L512,349.788V196.445C512,180.617,508.812,164.662,503.226,149.258z M206.444,475.863
		L27.649,405.355v-135.69c0-12.097,2.443-22.063,6.45-29.958c3.993-7.828,9.46-13.69,16.312-17.899l20.424-11.068
		c2.28-0.231,4.588-0.38,6.986-0.388c10.131,0,21.467,2.168,33.579,6.942c12.915,5.088,25.4,12.641,36.811,21.966
		c17.116,13.996,31.805,31.969,42.084,51.269c10.309,19.284,16.164,39.842,16.148,58.836V475.863z M484.366,333.32L225.453,473.613
		V349.364v-6.056h-0.164c-0.104-1.795-0.238-3.605-0.402-5.4l110.924-60.109v35.217c0,6.837,3.694,13.139,9.653,16.506
		c5.958,3.367,13.273,3.24,19.128-0.291l1.907-1.147c10.07-6.085,16.222-16.998,16.222-28.766v-46.941l101.644-55.068V333.32z" style="fill: #fff;"></path>
	<polygon class="st0" points="284.997,94.697 284.997,63.257 228.686,93.759 228.686,125.207 	" style="fill: #fff;"></polygon>
	<path class="st0" d="M199.309,182.561c7.642,0,13.824-6.19,13.824-13.824V85.983c-0.015-5.721,3.128-10.957,8.148-13.675
		l77.972-42.248v-0.015l0.402-0.09c0.164,0,0.298,0.03,0.447,0.127h0.015c0.253,0.134,0.417,0.432,0.417,0.738v80.773
		c0,7.627,6.182,13.809,13.825,13.809c7.627,0,13.809-6.182,13.809-13.809V30.819c0-10.048-5.289-19.351-13.914-24.498
		c-4.484-2.674-9.534-4.015-14.599-4.015c-4.648,0-9.34,1.147-13.586,3.449h0.014l-77.971,42.241
		c-13.944,7.567-22.614,22.137-22.614,37.987v82.754C185.499,176.371,191.682,182.561,199.309,182.561z" style="fill: #fff;"></path>
</g>
</svg>
