<svg xmlns="http://www.w3.org/2000/svg" viewBox="0 0 500 500"><g id="freepik--Browser--inject-4"><rect x="63.47" y="294.13" width="372.3" height="48.51" rx="22.54" style="fill:#fafafa"></rect><path d="M349.85,294.13h64.2a21.71,21.71,0,0,1,21.71,21.71v5.08a21.71,21.71,0,0,1-21.71,21.71h-64.2a0,0,0,0,1,0,0V294.13A0,0,0,0,1,349.85,294.13Z" style="fill:#FECC87"></path><path d="M104.58,319.42v6.41H102v-6.08c0-2-1-2.95-2.66-2.95-1.86,0-3.12,1.13-3.12,3.37v5.66H93.56V310.28h2.62v5.66a5,5,0,0,1,3.73-1.42C102.59,314.52,104.58,316.05,104.58,319.42Z" style="fill:#263238"></path><path d="M114.64,325.22a4.13,4.13,0,0,1-2.51.76c-2.45,0-3.86-1.3-3.86-3.78v-5.38h-1.84v-2.09h1.84v-2.56h2.62v2.56h3v2.09h-3v5.32c0,1.09.55,1.68,1.55,1.68a2.38,2.38,0,0,0,1.47-.46Z" style="fill:#263238"></path><path d="M123.25,325.22a4.11,4.11,0,0,1-2.51.76c-2.45,0-3.85-1.3-3.85-3.78v-5.38H115v-2.09h1.85v-2.56h2.61v2.56h3v2.09h-3v5.32c0,1.09.55,1.68,1.55,1.68a2.38,2.38,0,0,0,1.47-.46Z" style="fill:#263238"></path><path d="M137.29,320.24a5.45,5.45,0,0,1-5.67,5.74,4.63,4.63,0,0,1-3.59-1.51v5.42h-2.62V314.64h2.5v1.47a4.61,4.61,0,0,1,3.71-1.59A5.44,5.44,0,0,1,137.29,320.24Zm-2.66,0a3.32,3.32,0,1,0-3.31,3.49A3.25,3.25,0,0,0,134.63,320.24Z" style="fill:#263238"></path><path d="M138.91,316.25a1.72,1.72,0,1,1,3.43,0,1.72,1.72,0,1,1-3.43,0Zm0,8a1.72,1.72,0,1,1,3.43,0,1.72,1.72,0,1,1-3.43,0Z" style="fill:#263238"></path><path d="M150.52,308.19h2.34L146,327.92H143.6Z" style="fill:#263238"></path><path d="M156.82,308.19h2.35l-6.91,19.73h-2.35Z" style="fill:#263238"></path><path d="M176.85,314.64l-4.12,11.19h-2.52l-2.89-7.71-2.93,7.71h-2.52l-4.1-11.19h2.47l2.95,8.26,3.08-8.26h2.2l3,8.3,3-8.3Z" style="fill:#263238"></path><path d="M195.9,314.64l-4.13,11.19h-2.51l-2.89-7.71-2.94,7.71h-2.51l-4.11-11.19h2.48l3,8.26,3.08-8.26h2.2l3,8.3,3-8.3Z" style="fill:#263238"></path><path d="M215,314.64l-4.13,11.19h-2.51l-2.89-7.71-2.94,7.71H200l-4.11-11.19h2.47l3,8.26,3.08-8.26h2.2l3,8.3,3-8.3Z" style="fill:#263238"></path><path d="M215.18,324.24a1.72,1.72,0,1,1,3.44,0,1.72,1.72,0,1,1-3.44,0Z" style="fill:#263238"></path><path d="M413.22,342.63l2.07-.12c.68-.07,1.52-.22,2.52-.38a24.69,24.69,0,0,0,3.37-1,22.43,22.43,0,0,0,8.17-5.38,24,24,0,0,0,3.7-5.07,22.66,22.66,0,0,0,2.28-6.75,39.51,39.51,0,0,0,.3-8,21.89,21.89,0,0,0-2-8.53,22.73,22.73,0,0,0-5.72-7.64,22,22,0,0,0-9.12-4.77,23,23,0,0,0-5.41-.71h-17.6l-25.91,0L86,294.34a22.42,22.42,0,0,0-21.9,17.87c-.11.84-.28,1.66-.35,2.5s-.11,1.67-.1,2.52v2.54c0,.84.08,1.67.11,2.51a22.29,22.29,0,0,0,19.1,19.9,18,18,0,0,0,2.43.21c.81.06,1.64,0,2.46,0h80.27l127.6.05,86,.07,23.39,0,6.08,0,2.07,0s-.7,0-2.07,0l-6.08,0-23.39,0-86,.07-127.6,0H87.78c-.83,0-1.64,0-2.47,0a18.57,18.57,0,0,1-2.48-.21,22.71,22.71,0,0,1-19.46-20.28c0-.85-.11-1.71-.12-2.55v-2.54c0-.84.07-1.71.11-2.56s.23-1.69.35-2.54A22.85,22.85,0,0,1,86,293.91l283.84.06,25.91,0h17.6a23,23,0,0,1,5.47.73,22.1,22.1,0,0,1,9.2,4.83,23,23,0,0,1,5.77,7.72,22.35,22.35,0,0,1,2,8.61,40.68,40.68,0,0,1-.32,8,23.24,23.24,0,0,1-2.32,6.79,24,24,0,0,1-3.74,5.09,22.46,22.46,0,0,1-8.23,5.37,24.56,24.56,0,0,1-3.39,1c-1,.15-1.84.31-2.53.36Z" style="fill:#263238"></path><path d="M386.34,325a10.51,10.51,0,1,1,10.51-10.5A10.51,10.51,0,0,1,386.34,325Zm0-20.18A9.68,9.68,0,1,0,396,314.5,9.69,9.69,0,0,0,386.34,304.82Z" style="fill:#fff"></path><path d="M402.84,332.89a.43.43,0,0,1-.3-.13L393,322.45a.42.42,0,0,1,.61-.57l9.59,10.31a.43.43,0,0,1,0,.59A.46.46,0,0,1,402.84,332.89Z" style="fill:#fff"></path><path d="M222.41,329.47c-.12,0-.22-4.94-.22-11s.1-11,.22-11,.21,4.94.21,11S222.53,329.47,222.41,329.47Z" style="fill:#FECC87"></path></g><g id="freepik--Character--inject-4"><path d="M248.19,126.91a157.65,157.65,0,0,0,.05,39c.41,3.28,1.11,6.86,3.69,8.91,3.08,2.44,7.91,1.59,10.71-1.16s3.84-6.88,3.79-10.81-1.06-7.76-1.77-11.62c-.94-5.09-1.41-10.37-3.69-15s-7-8.6-12.12-8.08" style="fill:#263238"></path><path d="M255.77,88.82c5.87-5.78,18.46-4.31,25,.66s10,13.16,11.38,21.29,1.06,16.45,1.73,24.66,2.52,16.68,7.59,23.18c2.17,2.77,4.88,5.12,6.81,8.06a18.51,18.51,0,0,1,.76,19,16.72,16.72,0,0,1-17,8c-6.82-1.29-12.06-7.1-14.67-13.53s-3-13.51-3.57-20.43a563.47,563.47,0,0,0-8.68-64.18" style="fill:#263238"></path><path d="M248.59,152.34l6.11-1.66h26.93l14.6,8.62s-25.53,11.49-35,6.88a26.57,26.57,0,0,1-12.65-13.07" style="fill:#c69481"></path><path d="M281.84,103.59,282,100l-21.5-4.78c-6.65-.92-14.07,5.55-14.7,12.23-.7,7.42-1.26,16.51-.55,22.08,1.42,11.22,9.93,12.9,9.93,12.9l.91,24.51L280.77,168Z" style="fill:#c69481"></path><path d="M249,115.28a1.43,1.43,0,0,0,1.33,1.49,1.38,1.38,0,0,0,1.52-1.25,1.43,1.43,0,0,0-1.33-1.48A1.37,1.37,0,0,0,249,115.28Z" style="fill:#263238"></path><path d="M248,111.41c.17.19,1.28-.58,2.82-.52s2.65.85,2.82.67-.09-.42-.57-.8a4,4,0,0,0-2.24-.77,3.89,3.89,0,0,0-2.26.65C248.12,111,248,111.32,248,111.41Z" style="fill:#263238"></path><path d="M264.06,116a1.43,1.43,0,0,0,1.33,1.49,1.38,1.38,0,0,0,1.52-1.25,1.43,1.43,0,0,0-1.34-1.48A1.36,1.36,0,0,0,264.06,116Z" style="fill:#263238"></path><path d="M263.16,112.21c.17.19,1.28-.58,2.82-.53s2.64.86,2.82.68-.09-.43-.57-.8a4,4,0,0,0-2.25-.77,3.79,3.79,0,0,0-2.25.65C263.25,111.79,263.08,112.12,263.16,112.21Z" style="fill:#263238"></path><path d="M257.22,124.25a10.34,10.34,0,0,0-2.49-.53c-.39,0-.76-.14-.82-.41a2,2,0,0,1,.3-1.16c.4-.94.82-1.92,1.25-3,1.75-4.21,3-7.68,2.86-7.75s-1.73,3.29-3.47,7.51l-1.21,3a2.33,2.33,0,0,0-.25,1.54,1,1,0,0,0,.63.6,3,3,0,0,0,.66.11A10,10,0,0,0,257.22,124.25Z" style="fill:#263238"></path><path d="M255.21,142.45a29.5,29.5,0,0,0,15.44-3.53s-3.78,7.72-15.3,6.34Z" style="fill:#936457"></path><path d="M257.75,128a2.8,2.8,0,0,1,2.52-1,2.54,2.54,0,0,1,1.72,1,1.62,1.62,0,0,1,.07,1.84,1.88,1.88,0,0,1-2,.45,5.85,5.85,0,0,1-1.93-1.24,1.56,1.56,0,0,1-.42-.47.49.49,0,0,1,0-.57" style="fill:#936457"></path><path d="M261.72,125.46c-.25,0-.31,1.65-1.78,2.79s-3.24.9-3.26,1.13.39.34,1.14.38a4.14,4.14,0,0,0,2.72-.85,3.66,3.66,0,0,0,1.38-2.34C262,125.87,261.83,125.45,261.72,125.46Z" style="fill:#263238"></path><path d="M263,107.56c.14.42,1.68.27,3.48.54s3.25.82,3.5.45c.11-.18-.13-.58-.71-1a5.71,5.71,0,0,0-2.57-1,5.83,5.83,0,0,0-2.74.23C263.23,107,262.89,107.36,263,107.56Z" style="fill:#263238"></path><path d="M248.24,106.13c.26.36,1.34,0,2.61.05s2.35.31,2.61-.05c.11-.18,0-.53-.51-.88a3.77,3.77,0,0,0-4.2,0C248.29,105.6,248.13,106,248.24,106.13Z" style="fill:#263238"></path><path d="M281.51,121.14c1.95-1.29,2.8-12.42,2.72-17s-2.53-8.64-5.75-11.88C275,88.76,270.92,87.53,266,87c-2.76-.3-5.72-.66-8.39.1s-4.16,1.7-5.46,4.15c-.72,1.36-.91,3.3.34,4.19s2.82.17,4.23-.23c3.74-1.07,7.84.14,11.07,2.3s5.77,5.21,8.26,8.21c3.23,3.91,4.76,10.41,5.48,15.42" style="fill:#FECC87"></path><path d="M243.85,95.12c1.43-4.54,10.27-10.16,19.63-6,4.3.15,8.48.86,13.06,5,8.27,7.55,5.1,26,5.1,26a41.91,41.91,0,0,1-13.19-10.65c-5.31-6.4-8.22-11.41-9.26-14.45h0c-8.64,2.08-11.9,9.63-13.42,12.9C243.82,105.78,241.32,103.13,243.85,95.12Z" style="fill:#263238"></path><path d="M279.81,119.06c.18-.09,7.36-2.51,7.43,4.92s-7.4,6-7.41,5.75S279.81,119.06,279.81,119.06Z" style="fill:#c69481"></path><path d="M282.07,126.89s.13.09.35.19a1.27,1.27,0,0,0,1,0,3.2,3.2,0,0,0,1.45-2.89,4.35,4.35,0,0,0-.38-1.84,1.5,1.5,0,0,0-1-1,.65.65,0,0,0-.76.36c-.1.21-.05.36-.09.37s-.16-.12-.1-.43a.84.84,0,0,1,.28-.47,1,1,0,0,1,.72-.19,1.8,1.8,0,0,1,1.36,1.14,4.41,4.41,0,0,1,.47,2.06c0,1.5-.79,2.91-1.86,3.23a1.35,1.35,0,0,1-1.18-.19C282.08,127.07,282,126.91,282.07,126.89Z" style="fill:#936457"></path><path d="M199.85,284.82l-15,1.66-9.13,5.73s-.18,1.86,2.42,1.56l5.15-2.17-4.08,4.46s1,1.79,3.23.54a12.66,12.66,0,0,0,3.62-3.14l9-.63s-6.8,6.54-5.55,8.24,2.06,1.34,3,.72,1.53-2.78,3.76-3.49,5.94-2.81,9.94-4.71c3.45-1.63,6.94-13.3,6.94-13.3l-11.49-2.24Z" style="fill:#c69481"></path><path d="M193.89,288.64c0,.19-3.78.92-8.51,1.63l-.12,0,.19-.1c-3.3,3.38-6.07,6-6.21,5.87s2.42-3,5.72-6.35l.08-.09h.11l.13,0C190,288.88,193.86,288.45,193.89,288.64Z" style="fill:#936457"></path><polygon points="289.66 379.01 286.87 354.83 264.45 361.11 270.11 384.3 289.66 379.01" style="fill:#c69481"></polygon><path d="M289.91,379l3.79,28.18,9.43,21.43a2.91,2.91,0,0,1-1.68,3.91h0a2.91,2.91,0,0,1-2.65-.34c-4.93-3.44-23-16.16-23.19-18.24-.19-2.41-6-29.46-6-29.46Z" style="fill:#FECC87"></path><g style="opacity:0.6000000000000001"><path d="M301.45,432.47,275.31,412l.19,1.19a4.36,4.36,0,0,0,1.47,2.64c2.12,1.82,8.06,6.7,21.75,16.31a2.89,2.89,0,0,0,2.73.33Z" style="fill:#fff"></path></g><g style="opacity:0.6000000000000001"><path d="M279.65,402a1.76,1.76,0,0,1,.83,2.2,1.69,1.69,0,0,1-2.17.85,1.85,1.85,0,0,1-.87-2.33,1.75,1.75,0,0,1,2.35-.63" style="fill:#fff"></path></g><path d="M293.09,421.21a8.71,8.71,0,0,1,2.12-2.57c1.51-1.1,3.13-.95,3.14-1.13s-.38-.24-1.05-.22a4.42,4.42,0,0,0-2.45.84,4.51,4.51,0,0,0-1.62,2C293,420.78,293,421.2,293.09,421.21Z" style="fill:#263238"></path><path d="M295.69,424.66c.15.1.91-1,2.29-1.6a23.11,23.11,0,0,1,2.69-.79c.06-.16-1.39-.54-3,.22S295.53,424.61,295.69,424.66Z" style="fill:#263238"></path><path d="M288.61,417c.15.11,1.31-1.52,3.37-2.71s4-1.44,4-1.63-2.13-.22-4.33,1.09S288.46,416.92,288.61,417Z" style="fill:#263238"></path><path d="M286.74,408.51c.1.15,1.55-.74,3.56-1.13s3.68-.16,3.71-.34-1.68-.72-3.84-.27S286.63,408.39,286.74,408.51Z" style="fill:#263238"></path><path d="M285.41,400.26c.12.15,1.53-1,3.68-1.27s3.8.52,3.87.35-.33-.37-1-.65a6.3,6.3,0,0,0-2.92-.32,6.19,6.19,0,0,0-2.75,1C285.64,399.82,285.36,400.21,285.41,400.26Z" style="fill:#263238"></path><path d="M288.79,397.43a2.37,2.37,0,0,0-.13-1.07,7.45,7.45,0,0,0-1.28-2.65,3.33,3.33,0,0,0-1.65-1.34,1.18,1.18,0,0,0-1.27.46,1.93,1.93,0,0,0-.24,1.34,4.11,4.11,0,0,0,4.16,3.2,4.76,4.76,0,0,0,4.24-3.2,1.63,1.63,0,0,0-.13-1.37,1.16,1.16,0,0,0-1.29-.42,4,4,0,0,0-1.69,1.26,8.33,8.33,0,0,0-1.58,2.48,2.5,2.5,0,0,0-.27,1,13.28,13.28,0,0,1,2.17-3.22,3.75,3.75,0,0,1,1.5-1.05.6.6,0,0,1,.7.22,1.1,1.1,0,0,1,0,.9,4.27,4.27,0,0,1-3.71,2.74,3.57,3.57,0,0,1-3.57-2.67,1.38,1.38,0,0,1,.13-.94.64.64,0,0,1,.69-.27A3.08,3.08,0,0,1,287,394,11,11,0,0,1,288.79,397.43Z" style="fill:#263238"></path><path d="M237.8,240.52l-.41,6.1s-5.15,9.75-5.62,18.49c-.28,5.07-.39,12.55-.44,17.93a22.67,22.67,0,0,0,3.46,12.25l10.32,16.55-1.42,18.69L262.4,368l27.69-7-3.28-69.15-11.14-36.52L273.55,238Z" style="fill:#263238"></path><path d="M293.58,236.72l.49,7.95s22.24-47.36,52.58-53.2c19.71-3.8,27.48,17.69,20.56,34.75-4.16,10.27-21.44,29.93-21.46,30.38-.55,10.55-11.29,9-11.29,9S321,286.85,317,291c-2.74,2.85-31.65,1.83-31.65,1.83l-9.09-18.79-3.66-36Z" style="fill:#263238"></path><path d="M255.13,286.37a8.83,8.83,0,0,1-.52,1.71c-.41,1.2-.93,2.74-1.57,4.58-1.31,3.87-3,9.25-4.68,15.27s-2.88,11.53-3.71,15.53c-.39,1.91-.71,3.51-1,4.75a8.05,8.05,0,0,1-.42,1.73,9.66,9.66,0,0,1,.18-1.78c.14-1.13.4-2.77.76-4.79.72-4,1.9-9.57,3.54-15.61s3.44-11.41,4.87-15.25c.71-1.92,1.32-3.47,1.77-4.52A9.49,9.49,0,0,1,255.13,286.37Z" style="fill:#455a64"></path><path d="M248.23,278.91a38.46,38.46,0,0,1-.44,4.5c-.32,2.78-.69,6.61-.9,10.86s-.21,8.11-.16,10.9a38.26,38.26,0,0,1,0,4.52,4.71,4.71,0,0,1-.2-1.2c-.09-.78-.18-1.91-.26-3.31a106,106,0,0,1,0-10.94,107.75,107.75,0,0,1,1.08-10.89c.22-1.38.42-2.5.59-3.26A4.66,4.66,0,0,1,248.23,278.91Z" style="fill:#455a64"></path><path d="M290.09,359.53a2.48,2.48,0,0,1,0-.34c0-.26,0-.58-.08-1,0-.91-.14-2.18-.24-3.8-.19-3.35-.45-8.11-.78-14-.6-11.85-1.43-28.15-2.33-46.15-.29-4.5-.19-8.94-1.14-13A36.61,36.61,0,0,0,280.9,270a34.65,34.65,0,0,0-15.24-13.43,36.86,36.86,0,0,0-13.45-3.3c-1.64-.07-2.92,0-3.79,0l-1,.05h-.34a26.67,26.67,0,0,1,5.13-.3,35.86,35.86,0,0,1,13.63,3.13,35.38,35.38,0,0,1,8.25,5.12,35.91,35.91,0,0,1,7.31,8.42,36.93,36.93,0,0,1,4.68,11.39c1,4.21.87,8.67,1.16,13.15.84,18,1.6,34.3,2.15,46.16.24,5.87.43,10.64.57,14,0,1.62.1,2.89.13,3.81,0,.4,0,.73,0,1S290.11,359.53,290.09,359.53Z" style="fill:#455a64"></path><path d="M277.42,261.13c-.13-.12,2.52-3.55,5.92-7.67s6.28-7.37,6.42-7.26-2.51,3.55-5.92,7.67S277.56,261.24,277.42,261.13Z" style="fill:#455a64"></path><path d="M321.72,233.07a123.24,123.24,0,0,1,8.62-12.31,31,31,0,0,1,4.12-4.61,56,56,0,0,1-3.59,5.07c-2.25,3.09-5.29,7.42-8.35,12.41s-5.94,9.56-6.47,13.38a12.75,12.75,0,0,0,.58,6.12,3.39,3.39,0,0,1-.81-1.51,10.63,10.63,0,0,1-.43-4.71,19.48,19.48,0,0,1,2.2-6.6" style="fill:#455a64"></path><path d="M337.16,210c.14.13-.94,1.48-1.61,3.45s-.69,3.69-.89,3.7-.47-1.81.28-3.91S337.05,209.9,337.16,210Z" style="fill:#455a64"></path><path d="M274.49,310.24c-.16-.08,1.23-3.33,3.11-7.26s3.54-7.05,3.7-7-1.23,3.32-3.11,7.25S274.65,310.31,274.49,310.24Z" style="fill:#455a64"></path><path d="M258.82,299.49c.17-.06.88,1.45,1.59,3.38s1.14,3.54,1,3.6-.88-1.45-1.58-3.38S258.65,299.56,258.82,299.49Z" style="fill:#455a64"></path><path d="M222.85,173.14c1.6-13.84,10.48-16.94,10.48-16.94l1.3,81.77-10.2,42.23a9.46,9.46,0,0,1-12,6.83l-20.66-6.28S221.26,187,222.85,173.14Z" style="fill:#FECC87"></path><path d="M309.07,166s5.11,11.63,5.11,17.75,6.12,45.77,0,54.17S296,246,292.61,245.75c-4.67-.39-26.45-40.67-25.56-41.19l12.25-2.66s8.58.53,12.67,4,8.09-.53,8.09-.53l8.65-37.17" style="fill:#FECC87"></path><path d="M292,156.2S306,161,309.07,166s-14.59,70.42-14.59,70.42l-56.68,4.06s-4.47-.81-5.69-4.87,1.22-79.45,1.22-79.45l15.77-5.58s6.78,7,11.66,8.43S292,156.2,292,156.2Z" style="fill:#FECC87"></path><path d="M236.88,174.15a2.94,2.94,0,0,1,.06.67c0,.52,0,1.16.06,1.93,0,1.68,0,4.11,0,7.11a233.32,233.32,0,0,1-1.74,23.37c-.57,4.54-1.25,8.86-1.95,12.76s-1.46,7.39-1.38,10.37a14.45,14.45,0,0,0,1.62,6.75,19.53,19.53,0,0,0,1.46,2.13s-.2-.13-.51-.45a9.25,9.25,0,0,1-1.17-1.56,14.17,14.17,0,0,1-1.86-6.86c-.14-3,.57-6.6,1.25-10.48s1.33-8.21,1.89-12.74c1.14-9.06,1.69-17.32,1.94-23.31.1-2.92.18-5.32.24-7.09,0-.77,0-1.41.06-1.93A2.09,2.09,0,0,1,236.88,174.15Z" style="fill:#263238"></path><path d="M292,209.16a25,25,0,0,0-2-2.38,10.07,10.07,0,0,0-2.69-1.86,13,13,0,0,0-3.89-1,15.86,15.86,0,0,0-7.29.42,6.25,6.25,0,0,0-1.91,1.08c-.37.38-.59.58-.63.56s.12-.29.45-.73a5.47,5.47,0,0,1,1.92-1.34,14.72,14.72,0,0,1,7.55-.63,12.86,12.86,0,0,1,4.06,1.13,9.58,9.58,0,0,1,2.76,2.08,8.22,8.22,0,0,1,1.33,1.9C291.93,208.85,292,209.14,292,209.16Z" style="fill:#263238"></path><path d="M277.24,221.65c.1,0,.55,1.53,1.59,3.93a73.75,73.75,0,0,0,4.79,9,71.8,71.8,0,0,0,5.93,8.31,19.3,19.3,0,0,0,2.14,2.21,6.17,6.17,0,0,0,.92.63s-.46,0-1.08-.43a14.76,14.76,0,0,1-2.32-2.11,60.9,60.9,0,0,1-10.8-17.46,30.49,30.49,0,0,1-1-3A4.09,4.09,0,0,1,277.24,221.65Z" style="fill:#263238"></path><path d="M298.84,172.53c-.14-.09,1.15-2.13,3.28-4.2s4.19-3.32,4.28-3.18-1.76,1.61-3.83,3.64S299,172.65,298.84,172.53Z" style="fill:#263238"></path><path d="M231.38,158.33c.09-.14,2.38,1.27,4.44,3.82s3,5.06,2.84,5.12-1.33-2.26-3.35-4.71S231.27,158.48,231.38,158.33Z" style="fill:#263238"></path><path d="M283.91,230.22a15.9,15.9,0,0,1-2-3.21,46.07,46.07,0,0,1-5-17.38,15.09,15.09,0,0,1,0-3.77,35.41,35.41,0,0,1,.48,3.72,59.43,59.43,0,0,0,1.79,8.81,60.45,60.45,0,0,0,3.14,8.42A33.25,33.25,0,0,1,283.91,230.22Z" style="fill:#263238"></path><path d="M305,213.25a20.36,20.36,0,0,1-2.1-2,49.94,49.94,0,0,0-5.32-4.57,18.3,18.3,0,0,0-3.22-2,4.19,4.19,0,0,0-2.91-.31,3.21,3.21,0,0,0-1.64,1.12c-.27.4-.33.68-.38.67s-.06-.31.17-.79a3,3,0,0,1,1.7-1.43,4.48,4.48,0,0,1,3.29.19,16.77,16.77,0,0,1,3.37,2.06,34.6,34.6,0,0,1,5.27,4.78A9.74,9.74,0,0,1,305,213.25Z" style="fill:#263238"></path><g style="opacity:0.30000000000000004"><path d="M278.55,226.21c-2.93.74-5.9-1-8.92-1.12-2.74-.14-5.36,1-8,1.71a27.55,27.55,0,0,1-17.43-1.05,4.71,4.71,0,0,1-1.76-1.09,2.22,2.22,0,0,1-.33-2.2c5.09-.05,10.17.17,15.27.12a5.83,5.83,0,0,0,3-.59,1.29,1.29,0,0,0,.54-.56s3.05-.1,4.14-.11c2.45,0,5.28.19,7.73.18,1.07,0,4.51.15,4.43.15"></path></g><g style="opacity:0.30000000000000004"><path d="M295.33,204.39A23.65,23.65,0,0,1,307,210.13a3.84,3.84,0,0,1,.93,1.12,1.4,1.4,0,0,1,0,1.39,1.45,1.45,0,0,1-1.61.46,4.29,4.29,0,0,1-1.51-.95L295.09,204"></path></g><path d="M298.05,176.35a23.17,23.17,0,0,1,.09,4.15c-.05,2.55-.23,6.09-.6,10s-.86,7.4-1.29,9.92a22,22,0,0,1-.86,4.05,30.47,30.47,0,0,1,.41-4.12c.31-2.53.73-6,1.1-9.91s.61-7.39.78-9.93A30.58,30.58,0,0,1,298.05,176.35Z" style="fill:#263238"></path><polygon points="253.89 204.37 247.96 191.59 227.57 190.31 226.85 191.5 242.31 221.28 260.94 221.43 253.89 204.37" style="fill:#455a64"></polygon><path d="M253.17,205.56l-5.93-12.79-20.39-1.28,14.74,31,16.53.12a3.93,3.93,0,0,0,2.67-1l.15-.14Z" style="fill:#455a64"></path><path d="M237.7,197.51a1,1,0,1,0-.06-1.45A1,1,0,0,0,237.7,197.51Z" style="fill:#ebebeb"></path><path d="M277.06,206.21l-7.88.46a11.17,11.17,0,0,0-8.45-4.71l-2.81-.18-2.06,2s-13.83-.26-14.44,1.41l0,.55,0,.32,11.75,1.53s-10-.66-10.64-.68-2.79-.34-2.82.84c0,1,1.08,1.81,2.8,2.17.7.15,9.35,1.45,9.35,1.45l-9.57-.69c-1.07-.08-1,1.65-.42,1.91s12.53,4.54,12.53,4.54a7.4,7.4,0,0,1-3.82,1c-1.68-.22-4.43-2.57-5.09-1.58s-.58,1.59-.24,1.85a44.44,44.44,0,0,0,5.48,3c1.3.44,14.66-.23,14.66-.23l13.95.48Z" style="fill:#c69481"></path><path d="M251.15,203.69a41.11,41.11,0,0,1,4.85.13,39,39,0,0,1,4.84.43,38.67,38.67,0,0,1-4.85-.13A36.85,36.85,0,0,1,251.15,203.69Z" style="fill:#936457"></path><path d="M252,203.13s-.14-.27-.37-.76-.59-1.28-1-2.13c-.86-1.92-2-4.46-3.32-7.38l.08,0-4.67-.3-11.27-.75-3.41-.25-.93-.08-.32,0h.32l.93,0,3.42.19,11.27.69,4.67.31h.06l0,.05,3.26,7.41.93,2.15C251.94,202.85,252,203.13,252,203.13Z" style="fill:#263238"></path><path d="M330.81,271.42,317.23,288.5s13.72,18.24,11.52,21.64l-35-23.85,20.07-27.48Z" style="fill:#FECC87"></path><g style="opacity:0.6000000000000001"><path d="M307.78,279.25a1.72,1.72,0,0,0-2.13.87,1.67,1.67,0,0,0,.85,2.13,1.83,1.83,0,0,0,2.26-.95,1.73,1.73,0,0,0-1.13-2.11" style="fill:#fff"></path></g><g style="opacity:0.6000000000000001"><path d="M293.76,286.29l2-2.77,33,24.21a2.92,2.92,0,0,1,0,2.79Z" style="fill:#fff"></path></g><path d="M317.91,288.73c-.13.16-1-.38-2.23-.45s-2.17.31-2.27.13.85-1,2.32-.84S318.06,288.6,317.91,288.73Z" style="fill:#263238"></path><path d="M320.39,292.84c-.08.19-1-.06-2.09.23s-1.8.91-2,.78.43-1.15,1.78-1.48S320.5,292.68,320.39,292.84Z" style="fill:#263238"></path><path d="M319.26,298.62c-.17-.08.21-1.08,1.31-1.68s2.14-.38,2.11-.19-.87.32-1.77.83S319.44,298.72,319.26,298.62Z" style="fill:#263238"></path><path d="M320.57,284.49c-.18.1-.77-.69-1.76-1.32s-1.94-.87-1.92-1.08,1.16-.28,2.31.48S320.75,284.42,320.57,284.49Z" style="fill:#263238"></path><path d="M323.25,281c-.05.07-.79-.31-1.7-1.27a9.16,9.16,0,0,1-1.38-1.87,9.52,9.52,0,0,1-.6-1.24,2.8,2.8,0,0,1-.22-.78.91.91,0,0,1,.58-.94,1.13,1.13,0,0,1,1,.16,2.34,2.34,0,0,1,.57.56,7.31,7.31,0,0,1,.79,1.14,7.4,7.4,0,0,1,.82,2.2,3.52,3.52,0,0,1,0,2.12c-.12,0-.12-.8-.48-2a8.22,8.22,0,0,0-.89-2,7.68,7.68,0,0,0-.75-1c-.29-.36-.6-.59-.81-.49s-.1.05-.1.22a2,2,0,0,0,.16.57,9.77,9.77,0,0,0,.52,1.18,12.94,12.94,0,0,0,1.18,1.85C322.71,280.39,323.32,280.91,323.25,281Z" style="fill:#263238"></path><path d="M322.85,281.08a3.5,3.5,0,0,1,.77-2,6.85,6.85,0,0,1,1.61-1.7,7,7,0,0,1,1.2-.71,1.75,1.75,0,0,1,1.72-.06,1,1,0,0,1,.37,1,3.09,3.09,0,0,1-.29.75,4.58,4.58,0,0,1-.85,1.15,4.86,4.86,0,0,1-2,1.23,2.72,2.72,0,0,1-2.13,0,19,19,0,0,0,2-.49,4.77,4.77,0,0,0,1.72-1.21,4.26,4.26,0,0,0,.7-1c.21-.41.29-.8.13-.86a1.19,1.19,0,0,0-1,.12,6.12,6.12,0,0,0-1.1.61A7.61,7.61,0,0,0,324,279.4C323.24,280.36,323,281.12,322.85,281.08Z" style="fill:#263238"></path><polygon points="334.46 265.59 330.18 270.95 314.22 259.11 317.13 254.66 334.46 265.59" style="fill:#c69481"></polygon></g></svg>